<?xml version="1.0" encoding="UTF-8" standalone="no"?>
<!-- Created with Inkscape (http://www.inkscape.org/) -->

<svg
   version="1.1"
   id="svg9"
   width="2000"
   height="2000"
   viewBox="0 0 2000 2000"
   sodipodi:docname="Mako_Nav.svg"
   inkscape:version="1.2.1 (9c6d41e410, 2022-07-14)"
   xmlns:inkscape="http://www.inkscape.org/namespaces/inkscape"
   xmlns:sodipodi="http://sodipodi.sourceforge.net/DTD/sodipodi-0.dtd"
   xmlns="http://www.w3.org/2000/svg"
   xmlns:svg="http://www.w3.org/2000/svg">
  <defs
     id="defs13">
    <clipPath
       clipPathUnits="userSpaceOnUse"
       id="clipPath25">
      <path
         d="M 0,1500 H 1500 V 0 H 0 Z"
         id="path23" />
    </clipPath>
    <clipPath
       clipPathUnits="userSpaceOnUse"
       id="clipPath41">
      <path
         d="M 423.728,327.003 H 576.532 V 209.357 H 423.728 Z"
         id="path39" />
    </clipPath>
    <clipPath
       clipPathUnits="userSpaceOnUse"
       id="clipPath69">
      <path
         d="M 923.634,327.003 H 1076.44 V 209.357 H 923.634 Z"
         id="path67" />
    </clipPath>
    <clipPath
       clipPathUnits="userSpaceOnUse"
       id="clipPath89">
      <path
         d="M 324.013,1303.39 H 1175.97 V 783.122 H 324.013 Z"
         id="path87" />
    </clipPath>
    <clipPath
       clipPathUnits="userSpaceOnUse"
       id="clipPath105">
      <path
         d="M 324.013,1303.39 H 1175.97 V 865.957 H 324.013 Z"
         id="path103" />
    </clipPath>
    <clipPath
       clipPathUnits="userSpaceOnUse"
       id="clipPath133">
      <path
         d="M 372.664,382.393 H 1127.32 V 243.081 H 372.664 Z"
         id="path131" />
    </clipPath>
    <clipPath
       clipPathUnits="userSpaceOnUse"
       id="clipPath149">
      <path
         d="m 329.573,461.805 h 12.202 v -43.456 h -12.202 z"
         id="path147" />
    </clipPath>
    <clipPath
       clipPathUnits="userSpaceOnUse"
       id="clipPath169">
      <path
         d="m 1158.21,461.805 h 12.2 v -43.456 h -12.2 z"
         id="path167" />
    </clipPath>
    <clipPath
       clipPathUnits="userSpaceOnUse"
       id="clipPath209">
      <path
         d="M 77.0591,577.711 H 1422.95 V 332.982 H 77.0591 Z"
         id="path207" />
    </clipPath>
    <clipPath
       clipPathUnits="userSpaceOnUse"
       id="clipPath245">
      <path
         d="M 77.0591,593.178 H 1422.95 V 376.912 H 77.0591 Z"
         id="path243" />
    </clipPath>
    <clipPath
       clipPathUnits="userSpaceOnUse"
       id="clipPath269">
      <path
         d="M 77.0591,628.396 H 1422.95 V 406.213 H 77.0591 Z"
         id="path267" />
    </clipPath>
    <clipPath
       clipPathUnits="userSpaceOnUse"
       id="clipPath285">
      <path
         d="M 77.0591,829.766 H 1422.95 V 608.93 H 77.0591 Z"
         id="path283" />
    </clipPath>
    <clipPath
       clipPathUnits="userSpaceOnUse"
       id="clipPath333">
      <path
         d="m 701.533,553.185 h 96.941 v -57.723 h -96.941 z"
         id="path331" />
    </clipPath>
    <clipPath
       clipPathUnits="userSpaceOnUse"
       id="clipPath349">
      <path
         d="m 701.533,517.233 h 96.941 v -58.887 h -96.941 z"
         id="path347" />
    </clipPath>
    <clipPath
       clipPathUnits="userSpaceOnUse"
       id="clipPath373">
      <path
         d="m 1217.73,668.792 h 93.73 v -47.579 h -93.73 z"
         id="path371" />
    </clipPath>
    <clipPath
       clipPathUnits="userSpaceOnUse"
       id="clipPath389">
      <path
         d="m 1218.56,653.269 h 93.14 v -51.13 h -93.14 z"
         id="path387" />
    </clipPath>
    <clipPath
       clipPathUnits="userSpaceOnUse"
       id="clipPath413">
      <path
         d="m 195.813,668.792 h 93.728 v -47.579 h -93.728 z"
         id="path411" />
    </clipPath>
    <clipPath
       clipPathUnits="userSpaceOnUse"
       id="clipPath429">
      <path
         d="m 195.57,653.269 h 93.144 v -51.13 H 195.57 Z"
         id="path427" />
    </clipPath>
    <clipPath
       clipPathUnits="userSpaceOnUse"
       id="clipPath477">
      <path
         d="m 880.517,614.99 h 19.884 v -31.312 h -19.884 z"
         id="path475" />
    </clipPath>
    <clipPath
       clipPathUnits="userSpaceOnUse"
       id="clipPath601">
      <path
         d="M 531.272,780.001 H 940.599 V 708.31 H 531.272 Z"
         id="path599" />
    </clipPath>
    <clipPath
       clipPathUnits="userSpaceOnUse"
       id="clipPath617">
      <path
         d="m 681.152,550.159 h 36.283 v -38.572 h -36.283 z"
         id="path615" />
    </clipPath>
    <clipPath
       clipPathUnits="userSpaceOnUse"
       id="clipPath633">
      <path
         d="m 752.84,547.61 h 36.283 V 511.588 H 752.84 Z"
         id="path631" />
    </clipPath>
    <clipPath
       clipPathUnits="userSpaceOnUse"
       id="clipPath649">
      <path
         d="m 612.007,601.932 h 65.265 v -43.028 h -65.265 z"
         id="path647" />
    </clipPath>
    <clipPath
       clipPathUnits="userSpaceOnUse"
       id="clipPath665">
      <path
         d="m 796.529,605.869 h 59.722 v -50.913 h -59.722 z"
         id="path663" />
    </clipPath>
    <clipPath
       clipPathUnits="userSpaceOnUse"
       id="clipPath681">
      <path
         d="m 949.101,668.997 h 36.594 v -13.716 h -36.594 z"
         id="path679" />
    </clipPath>
    <clipPath
       clipPathUnits="userSpaceOnUse"
       id="clipPath697">
      <path
         d="m 590.243,1148.86 h 47.408 v -23.48 h -47.408 z"
         id="path695" />
    </clipPath>
    <clipPath
       clipPathUnits="userSpaceOnUse"
       id="clipPath713">
      <path
         d="m 828.439,1148.86 h 47.408 v -23.48 h -47.408 z"
         id="path711" />
    </clipPath>
    <clipPath
       clipPathUnits="userSpaceOnUse"
       id="clipPath729">
      <path
         d="m 599.493,1078.73 h 269.416 v -48.32 H 599.493 Z"
         id="path727" />
    </clipPath>
    <clipPath
       clipPathUnits="userSpaceOnUse"
       id="clipPath745">
      <path
         d="m 828.439,1177.77 h 52.033 v -20.82 h -52.033 z"
         id="path743" />
    </clipPath>
    <clipPath
       clipPathUnits="userSpaceOnUse"
       id="clipPath761">
      <path
         d="m 584.461,1177.77 h 52.033 v -20.82 h -52.033 z"
         id="path759" />
    </clipPath>
    <clipPath
       clipPathUnits="userSpaceOnUse"
       id="clipPath777">
      <path
         d="m 921.35,738.578 h 70.534 V 702.529 H 921.35 Z"
         id="path775" />
    </clipPath>
  </defs>
  <sodipodi:namedview
     id="namedview11"
     pagecolor="#ffffff"
     bordercolor="#000000"
     borderopacity="0.25"
     inkscape:showpageshadow="2"
     inkscape:pageopacity="0.0"
     inkscape:pagecheckerboard="0"
     inkscape:deskcolor="#d1d1d1"
     showgrid="false"
     inkscape:zoom="0.3875"
     inkscape:cx="998.70968"
     inkscape:cy="1000"
     inkscape:window-width="1920"
     inkscape:window-height="991"
     inkscape:window-x="-9"
     inkscape:window-y="-9"
     inkscape:window-maximized="1"
     inkscape:current-layer="g17">
    <inkscape:page
       x="0"
       y="0"
       id="page15"
       width="2000"
       height="2000" />
  </sodipodi:namedview>
  <g
     id="g17"
     inkscape:groupmode="layer"
     inkscape:label="Page 1"
     transform="matrix(1.3333333,0,0,-1.3333333,0,2000)">
    <g
       id="g19">
      <g
         id="g21"
         clip-path="url(#clipPath25)">
        <g
           id="g27"
           transform="translate(558.2627,219.999)">
          <path
             d="m 0,0 c -31.188,-31.187 -81.754,-31.187 -112.942,0 -31.188,31.188 -31.188,81.755 0,112.942 31.188,31.189 81.754,31.189 112.942,0 C 31.188,81.755 31.188,31.188 0,0"
             style="fill:#e7fe9c;fill-opacity:1;fill-rule:nonzero;stroke:none"
             id="path29" />
        </g>
        <g
           id="g31"
           transform="translate(501.792,355.0576)">
          <path
             d="m 0,0 c -20.992,0 -40.727,-8.175 -55.569,-23.018 -14.843,-14.843 -23.017,-34.578 -23.017,-55.569 0,-20.991 8.174,-40.726 23.017,-55.569 14.842,-14.843 34.577,-23.018 55.569,-23.018 20.992,0 40.726,8.175 55.569,23.018 14.842,14.843 23.017,34.578 23.017,55.569 0,20.991 -8.175,40.726 -23.017,55.569 C 40.726,-8.175 20.992,0 0,0 m 0,-159.725 c -21.672,0 -42.049,8.441 -57.373,23.765 -15.325,15.324 -23.764,35.7 -23.764,57.373 0,21.673 8.439,42.048 23.764,57.373 C -42.049,-5.89 -21.672,2.55 0,2.55 c 21.672,0 42.049,-8.44 57.372,-23.764 15.326,-15.325 23.764,-35.7 23.764,-57.373 0,-21.673 -8.438,-42.049 -23.764,-57.373 C 42.049,-151.284 21.672,-159.725 0,-159.725"
             style="fill:#e7fe9c;fill-opacity:1;fill-rule:nonzero;stroke:none"
             id="path33" />
        </g>
        <g
           id="g35">
          <g
             id="g37" />
          <g
             id="g49">
            <g
               clip-path="url(#clipPath41)"
               opacity="0.300003"
               id="g47">
              <g
                 transform="translate(425.3579,253.3652)"
                 id="g45">
                <path
                   d="m 0,0 c 3.732,-7.425 8.656,-14.408 14.857,-20.608 31.199,-31.2 81.76,-31.2 112.938,0 21.571,21.554 28.205,52.396 19.942,79.685 0.944,-1.872 1.811,-3.772 2.598,-5.699 -2.935,7.178 -6.939,14.019 -12.051,20.26 C 143.792,48.011 136.59,20.22 116.695,0.326 85.497,-30.873 34.936,-30.873 3.738,0.326 1.84,2.223 0.044,4.202 -1.63,6.243 -0.532,1.104 1.108,-3.937 3.234,-8.82 1.98,-5.932 0.898,-2.988 0,0"
                   style="fill:#390075;fill-opacity:1;fill-rule:nonzero;stroke:none"
                   id="path43" />
              </g>
            </g>
          </g>
        </g>
        <g
           id="g51"
           transform="translate(501.792,348.1719)">
          <path
             d="m 0,0 c -19.152,0 -37.157,-7.459 -50.7,-21.001 -13.542,-13.543 -21.002,-31.548 -21.002,-50.701 0,-19.152 7.46,-37.157 21.002,-50.699 13.543,-13.542 31.548,-21.001 50.7,-21.001 19.151,0 37.157,7.459 50.699,21.001 13.543,13.542 21.002,31.547 21.002,50.699 0,19.153 -7.459,37.158 -21.002,50.701 C 37.157,-7.459 19.151,0 0,0 m 0,-159.726 c -23.513,0 -45.616,9.157 -62.242,25.783 -16.626,16.626 -25.782,38.729 -25.782,62.241 0,23.513 9.156,45.617 25.782,62.243 16.626,16.626 38.729,25.782 62.242,25.782 23.513,0 45.616,-9.156 62.242,-25.782 16.625,-16.626 25.781,-38.73 25.781,-62.243 0,-23.512 -9.156,-45.615 -25.781,-62.241 C 45.616,-150.569 23.513,-159.726 0,-159.726"
             style="fill:#000000;fill-opacity:1;fill-rule:nonzero;stroke:none"
             id="path53" />
        </g>
        <g
           id="g55"
           transform="translate(939.7686,219.999)">
          <path
             d="m 0,0 c 31.188,-31.187 81.754,-31.187 112.942,0 31.188,31.188 31.188,81.755 0,112.942 C 81.754,144.131 31.188,144.131 0,112.942 -31.188,81.755 -31.188,31.188 0,0"
             style="fill:#e7fe9c;fill-opacity:1;fill-rule:nonzero;stroke:none"
             id="path57" />
        </g>
        <g
           id="g59"
           transform="translate(940.6689,220.9014)">
          <path
             d="m 0,0 c 30.646,-30.643 80.504,-30.638 111.141,0 30.638,30.641 30.638,80.497 0,111.139 C 80.502,141.78 30.645,141.775 0,111.139 -30.639,80.497 -30.639,30.641 0,0 m 55.569,-25.529 c -20.775,0 -41.553,7.908 -57.372,23.725 -31.635,31.635 -31.635,83.111 0,114.746 31.638,31.633 83.11,31.635 114.747,0 31.635,-31.635 31.635,-83.111 0,-114.746 C 97.125,-17.621 76.347,-25.529 55.569,-25.529"
             style="fill:#e7fe9c;fill-opacity:1;fill-rule:nonzero;stroke:none"
             id="path61" />
        </g>
        <g
           id="g63">
          <g
             id="g65" />
          <g
             id="g77">
            <g
               clip-path="url(#clipPath69)"
               opacity="0.300003"
               id="g75">
              <g
                 transform="translate(1074.8076,253.3652)"
                 id="g73">
                <path
                   d="m 0,0 c -3.732,-7.425 -8.655,-14.408 -14.857,-20.608 -31.199,-31.2 -81.759,-31.2 -112.938,0 -21.571,21.554 -28.205,52.396 -19.942,79.685 -0.944,-1.872 -1.811,-3.772 -2.598,-5.699 2.936,7.178 6.939,14.019 12.052,20.26 -5.509,-25.627 1.693,-53.418 21.589,-73.312 31.197,-31.199 81.758,-31.199 112.957,0 C -1.84,2.223 -0.044,4.202 1.63,6.243 0.532,1.104 -1.108,-3.937 -3.234,-8.82 -1.98,-5.932 -0.897,-2.988 0,0"
                   style="fill:#390075;fill-opacity:1;fill-rule:nonzero;stroke:none"
                   id="path71" />
              </g>
            </g>
          </g>
        </g>
        <g
           id="g79"
           transform="translate(945.5381,225.7705)">
          <path
             d="m 0,0 c 27.959,-27.956 73.448,-27.951 101.402,0 27.953,27.956 27.953,73.443 0,101.4 C 73.443,129.356 27.954,129.354 0,101.4 -27.953,73.443 -27.953,27.956 0,0 m 50.7,-37.282 c -22.539,0 -45.08,8.58 -62.242,25.74 -34.32,34.32 -34.32,90.164 0,124.484 34.323,34.317 90.163,34.322 124.486,0 34.321,-34.32 34.321,-90.164 0,-124.484 -17.161,-17.16 -39.703,-25.74 -62.244,-25.74"
             style="fill:#000000;fill-opacity:1;fill-rule:nonzero;stroke:none"
             id="path81" />
        </g>
        <g
           id="g83">
          <g
             id="g85" />
          <g
             id="g97">
            <g
               clip-path="url(#clipPath89)"
               opacity="0.300003"
               id="g95">
              <g
                 transform="translate(1175.9746,877.3896)"
                 id="g93">
                <path
                   d="m 0,0 c 0,-32.402 -3.611,-63.947 -10.467,-94.268 -114.428,27.607 -258.707,44.094 -415.514,44.094 -156.807,0 -301.106,-16.487 -415.514,-44.094 -6.856,30.321 -10.467,61.866 -10.467,94.268 0,235.283 190.719,426.002 425.981,426.002 C -190.719,426.002 0,235.283 0,0"
                   style="fill:#6ad5ef;fill-opacity:1;fill-rule:nonzero;stroke:none"
                   id="path91" />
              </g>
            </g>
          </g>
        </g>
        <g
           id="g99">
          <g
             id="g101" />
          <g
             id="g113">
            <g
               clip-path="url(#clipPath105)"
               opacity="0.5"
               id="g111">
              <g
                 transform="translate(749.9941,1280.436)"
                 id="g109">
                <path
                   d="m 0,0 c 231.408,0 419.716,-184.524 425.822,-414.479 0.1,3.8 0.158,7.609 0.158,11.433 0,235.282 -190.718,426.001 -425.98,426.001 -235.263,0 -425.981,-190.719 -425.981,-426.001 0,-3.824 0.058,-7.633 0.159,-11.433 C -419.716,-184.524 -231.409,0 0,0"
                   style="fill:#ffffff;fill-opacity:1;fill-rule:nonzero;stroke:none"
                   id="path107" />
              </g>
            </g>
          </g>
        </g>
        <g
           id="g115"
           transform="translate(749.9937,835.3784)">
          <path
             d="m 0,0 c 149.463,0 290.751,-14.646 409.292,-42.389 5.66,27.601 8.526,55.952 8.526,84.401 0,230.398 -187.433,417.839 -417.818,417.839 -230.385,0 -417.818,-187.441 -417.818,-417.839 0,-28.449 2.864,-56.8 8.526,-84.4 C -290.771,-14.646 -149.483,0 0,0 m -421.648,-62.132 -1.826,8.076 c -7.079,31.309 -10.668,63.631 -10.668,96.068 0,239.398 194.755,434.163 434.142,434.163 239.387,0 434.142,-194.765 434.142,-434.163 0,-32.437 -3.589,-64.759 -10.667,-96.068 l -1.826,-8.076 -8.05,1.942 C 294.65,-31.493 151.627,-16.325 0,-16.325 c -151.647,0 -294.669,-15.168 -413.599,-43.865 z"
             style="fill:#390075;fill-opacity:1;fill-rule:nonzero;stroke:none"
             id="path117" />
        </g>
        <g
           id="g119"
           transform="translate(749.9937,835.3784)">
          <path
             d="m 0,0 c 149.463,0 290.751,-14.646 409.292,-42.389 5.66,27.601 8.526,55.952 8.526,84.401 0,230.398 -187.433,417.839 -417.818,417.839 -230.385,0 -417.818,-187.441 -417.818,-417.839 0,-28.449 2.864,-56.8 8.526,-84.4 C -290.771,-14.646 -149.483,0 0,0 m -421.648,-62.132 -1.826,8.076 c -7.079,31.309 -10.668,63.631 -10.668,96.068 0,239.398 194.755,434.163 434.142,434.163 239.387,0 434.142,-194.765 434.142,-434.163 0,-32.437 -3.589,-64.759 -10.667,-96.068 l -1.826,-8.076 -8.05,1.942 C 294.65,-31.493 151.627,-16.325 0,-16.325 c -151.647,0 -294.669,-15.168 -413.599,-43.865 z"
             style="fill:#000000;fill-opacity:1;fill-rule:nonzero;stroke:none"
             id="path121" />
        </g>
        <g
           id="g123"
           transform="translate(1169.1445,472.123)">
          <path
             d="m 0,0 c 0,-34.226 -11.815,-66.826 -33.184,-96.481 -63.777,-88.409 -212.586,-150.411 -385.964,-150.411 -173.398,0 -322.206,62.002 -385.964,150.411 -21.368,29.655 -33.184,62.255 -33.184,96.481 0,136.396 187.65,246.943 419.148,246.943 C -187.669,246.943 0,136.396 0,0"
             style="fill:#e7fe9c;fill-opacity:1;fill-rule:nonzero;stroke:none"
             id="path125" />
        </g>
        <g
           id="g127">
          <g
             id="g129" />
          <g
             id="g141">
            <g
               clip-path="url(#clipPath133)"
               opacity="0.300003"
               id="g139">
              <g
                 transform="translate(372.6772,382.3799)"
                 id="g137">
                <path
                   d="m 0,0 c 67.876,-82.437 211.299,-139.299 377.317,-139.299 165.998,0 309.42,56.862 377.313,139.299 0.004,0.003 0.006,0.007 0.01,0.009 C 686.751,-55.36 543.324,-93.553 377.317,-93.553 211.287,-93.553 67.854,-55.358 -0.014,0.013 -0.01,0.008 -0.005,0.004 0,0"
                   style="fill:#390075;fill-opacity:1;fill-rule:nonzero;stroke:none"
                   id="path135" />
              </g>
            </g>
          </g>
        </g>
        <g
           id="g143">
          <g
             id="g145" />
          <g
             id="g161">
            <g
               clip-path="url(#clipPath149)"
               opacity="0.350006"
               id="g159">
              <g
                 transform="translate(331.2153,461.6719)"
                 id="g153">
                <path
                   d="M 0,0 C 1.041,-14.589 4.203,-28.872 9.365,-42.706 3,-31.198 -0.368,-19.262 -0.368,-6.998 -0.368,-4.652 -0.245,-2.326 0,0"
                   style="fill:#6c184e;fill-opacity:1;fill-rule:nonzero;stroke:none"
                   id="path151" />
              </g>
              <g
                 transform="translate(339.4639,418.3486)"
                 id="g157">
                <path
                   d="m 0,0 c -6.563,11.867 -9.891,24.09 -9.891,36.325 0,2.373 0.124,4.772 0.374,7.131 l 2.54,-0.042 C -5.956,29.094 -2.83,14.844 2.312,1.063 Z"
                   style="fill:#390075;fill-opacity:1;fill-rule:nonzero;stroke:none"
                   id="path155" />
              </g>
            </g>
          </g>
        </g>
        <g
           id="g163">
          <g
             id="g165" />
          <g
             id="g181">
            <g
               clip-path="url(#clipPath169)"
               opacity="0.350006"
               id="g179">
              <g
                 transform="translate(1169.1396,454.6738)"
                 id="g173">
                <path
                   d="M 0,0 C 0,-12.264 -3.367,-24.2 -9.733,-35.708 -4.57,-21.874 -1.408,-7.591 -0.367,6.998 -0.123,4.672 0,2.346 0,0"
                   style="fill:#6c184e;fill-opacity:1;fill-rule:nonzero;stroke:none"
                   id="path171" />
              </g>
              <g
                 transform="translate(1160.5215,418.3486)"
                 id="g177">
                <path
                   d="M 0,0 -2.312,1.063 C 2.832,14.841 5.958,29.09 6.979,43.414 L 9.52,43.456 C 9.769,41.097 9.894,38.698 9.894,36.325 9.894,24.088 6.565,11.866 0,0"
                   style="fill:#390075;fill-opacity:1;fill-rule:nonzero;stroke:none"
                   id="path175" />
              </g>
            </g>
          </g>
        </g>
        <g
           id="g183"
           transform="translate(1422.9414,566.6709)">
          <path
             d="m 0,0 c 0,-28.646 -18.971,-55.934 -53.276,-80.755 -102.396,-73.997 -341.308,-152.927 -619.669,-152.927 -278.392,0 -517.304,78.93 -619.668,152.927 -34.306,24.821 -53.276,52.109 -53.276,80.755 0,114.162 301.272,206.691 672.944,206.691 C -301.304,206.691 0,114.162 0,0"
             style="fill:#b1223e;fill-opacity:1;fill-rule:nonzero;stroke:none"
             id="path185" />
        </g>
        <g
           id="g187"
           transform="translate(749.9961,772.0869)">
          <path
             d="m 0,0 c -370.359,0 -671.669,-92.149 -671.669,-205.416 0,-27.576 17.747,-54.398 52.75,-79.722 101.727,-73.537 338.798,-152.684 618.919,-152.684 280.076,0 517.162,79.147 618.922,152.684 35.001,25.326 52.747,52.147 52.747,79.722 C 671.669,-92.149 370.359,0 0,0 m 0,-440.373 c -280.687,0 -518.365,79.398 -620.414,153.168 -35.703,25.832 -53.805,53.349 -53.805,81.789 0,55.82 70.316,108.16 197.995,147.375 C -349.008,-18.968 -179.883,2.55 0,2.55 c 179.871,0 348.993,-21.518 476.212,-60.591 127.688,-39.216 198.008,-91.556 198.008,-147.375 0,-28.439 -18.103,-55.957 -53.803,-81.789 C 518.335,-360.975 280.645,-440.373 0,-440.373"
             style="fill:#390075;fill-opacity:1;fill-rule:nonzero;stroke:none"
             id="path189" />
        </g>
        <g
           id="g191"
           transform="translate(749.9961,710.9033)">
          <path
             d="m 0,0 c -226.619,0 -410.985,-107.116 -410.985,-238.78 0,-31.714 10.645,-62.57 31.645,-91.71 64.408,-89.31 213.308,-147.02 379.34,-147.02 166.015,0 314.915,57.71 379.344,147.024 20.997,29.136 31.642,59.992 31.642,91.706 C 410.986,-107.116 226.62,0 0,0 m 0,-493.834 c -171.105,0 -325.204,60.369 -392.584,153.799 -23.042,31.979 -34.726,66.046 -34.726,101.255 0,68.974 45.025,133.486 126.782,181.651 80.4,47.367 187.129,73.454 300.528,73.454 113.393,0 220.119,-26.087 300.521,-73.454 81.761,-48.166 126.79,-112.679 126.79,-181.651 0,-35.209 -11.685,-69.276 -34.724,-101.252 C 325.187,-433.465 171.088,-493.834 0,-493.834"
             style="fill:#000000;fill-opacity:1;fill-rule:nonzero;stroke:none"
             id="path193" />
        </g>
        <g
           id="g195"
           transform="translate(1422.9414,566.6709)">
          <path
             d="m 0,0 c 0,-28.646 -18.971,-55.934 -53.276,-80.755 -102.396,-73.997 -341.308,-152.927 -619.669,-152.927 -278.392,0 -517.304,78.93 -619.668,152.927 -34.306,24.821 -53.276,52.109 -53.276,80.755 0,114.162 301.272,206.691 672.944,206.691 C -301.304,206.691 0,114.162 0,0"
             style="fill:#935cc5;fill-opacity:1;fill-rule:nonzero;stroke:none"
             id="path197" />
        </g>
        <g
           id="g199"
           transform="translate(749.9961,772.0869)">
          <path
             d="m 0,0 c -370.359,0 -671.669,-92.149 -671.669,-205.416 0,-27.576 17.747,-54.398 52.75,-79.722 101.727,-73.537 338.798,-152.684 618.919,-152.684 280.076,0 517.162,79.147 618.922,152.684 35.001,25.326 52.747,52.147 52.747,79.722 C 671.669,-92.149 370.359,0 0,0 m 0,-440.373 c -280.687,0 -518.365,79.398 -620.414,153.168 -35.703,25.832 -53.805,53.349 -53.805,81.789 0,55.82 70.316,108.16 197.995,147.375 C -349.008,-18.968 -179.883,2.55 0,2.55 c 179.871,0 348.993,-21.518 476.212,-60.591 127.688,-39.216 198.008,-91.556 198.008,-147.375 0,-28.439 -18.103,-55.957 -53.803,-81.789 C 518.335,-360.975 280.645,-440.373 0,-440.373"
             style="fill:#112770;fill-opacity:1;fill-rule:nonzero;stroke:none"
             id="path201" />
        </g>
        <g
           id="g203">
          <g
             id="g205" />
          <g
             id="g217">
            <g
               clip-path="url(#clipPath209)"
               opacity="0.300003"
               id="g215">
              <g
                 transform="translate(1422.9482,566.6729)"
                 id="g213">
                <path
                   d="m 0,0 c 0,-28.647 -18.976,-55.929 -53.275,-80.761 -102.41,-73.985 -341.324,-152.93 -619.68,-152.93 -278.397,0 -517.31,78.945 -619.659,152.93 -34.32,24.832 -53.275,52.114 -53.275,80.761 0,3.714 0.326,7.387 0.959,11.039 4.223,-24.608 22.445,-48.094 52.316,-69.682 102.349,-74.005 341.262,-152.929 619.659,-152.929 278.356,0 517.27,78.924 619.68,152.929 29.851,21.588 48.093,45.074 52.316,69.682 C -0.326,7.387 0,3.714 0,0"
                   style="fill:#390075;fill-opacity:1;fill-rule:nonzero;stroke:none"
                   id="path211" />
              </g>
            </g>
          </g>
        </g>
        <g
           id="g219"
           transform="translate(749.9961,765.1997)">
          <path
             d="m 0,0 c -178.969,0 -347.11,-21.371 -473.452,-60.174 -121.593,-37.347 -191.33,-87.775 -191.33,-138.355 0,-25.241 16.788,-50.187 49.9,-74.142 100.854,-72.908 336.293,-151.377 614.882,-151.377 278.545,0 513.999,78.469 614.89,151.38 33.104,23.953 49.892,48.898 49.892,74.139 0,50.579 -69.741,101.007 -191.341,138.355 C 347.096,-21.371 178.959,0 0,0 m 0,-440.373 c -282.218,0 -521.528,80.076 -624.449,154.475 -37.595,27.2 -56.657,56.595 -56.657,87.369 0,59.103 72.045,113.779 202.86,153.958 127.853,39.27 297.698,60.896 478.246,60.896 180.538,0 350.378,-21.626 478.234,-60.896 130.825,-40.179 202.872,-94.855 202.872,-153.958 0,-30.773 -19.061,-60.168 -56.652,-87.368 C 521.499,-360.298 282.174,-440.373 0,-440.373"
             style="fill:#000000;fill-opacity:1;fill-rule:nonzero;stroke:none"
             id="path221" />
        </g>
        <g
           id="g223"
           transform="translate(1422.9414,583.5674)">
          <path
             d="m 0,0 c 0,-28.647 -18.971,-55.934 -53.276,-80.756 -102.396,-73.997 -341.308,-125.892 -619.669,-125.892 -278.392,0 -517.304,51.895 -619.668,125.892 -34.306,24.822 -53.276,52.109 -53.276,80.756 0,114.162 301.272,206.69 672.944,206.69 C -301.304,206.69 0,114.162 0,0"
             style="fill:#ffffff;fill-opacity:1;fill-rule:nonzero;stroke:none"
             id="path225" />
        </g>
        <g
           id="g227"
           transform="translate(749.9961,788.9829)">
          <path
             d="m 0,0 c -370.359,0 -671.669,-92.15 -671.669,-205.416 0,-27.575 17.747,-54.398 52.75,-79.721 105.59,-76.331 348.532,-125.652 618.919,-125.652 270.357,0 513.299,49.321 618.922,125.652 35.001,25.323 52.747,52.146 52.747,79.721 C 671.669,-92.15 370.359,0 0,0 m 0,-413.339 c -270.89,0 -514.417,49.51 -620.414,126.134 -35.703,25.831 -53.805,53.349 -53.805,81.789 0,55.821 70.316,108.161 197.995,147.375 C -349.008,-18.968 -179.883,2.551 0,2.551 c 179.871,0 348.993,-21.519 476.212,-60.592 127.688,-39.215 198.008,-91.554 198.008,-147.375 0,-28.439 -18.103,-55.958 -53.803,-81.789 C 514.385,-363.829 270.858,-413.339 0,-413.339"
             style="fill:#390075;fill-opacity:1;fill-rule:nonzero;stroke:none"
             id="path229" />
        </g>
        <g
           id="g231"
           transform="translate(1422.9414,583.5674)">
          <path
             d="m 0,0 c 0,-28.647 -18.971,-55.934 -53.276,-80.756 -102.396,-73.997 -341.308,-125.892 -619.669,-125.892 -278.392,0 -517.304,51.895 -619.668,125.892 -34.306,24.822 -53.276,52.109 -53.276,80.756 0,114.162 301.272,206.69 672.944,206.69 C -301.304,206.69 0,114.162 0,0"
             style="fill:#d8ff7e;fill-opacity:1;fill-rule:nonzero;stroke:none"
             id="path233" />
        </g>
        <g
           id="g235"
           transform="translate(749.9961,788.9829)">
          <path
             d="m 0,0 c -370.359,0 -671.669,-92.15 -671.669,-205.416 0,-27.575 17.747,-54.398 52.75,-79.721 105.59,-76.331 348.532,-125.652 618.919,-125.652 270.357,0 513.299,49.321 618.922,125.652 35.001,25.323 52.747,52.146 52.747,79.721 C 671.669,-92.15 370.359,0 0,0 m 0,-413.339 c -270.89,0 -514.417,49.51 -620.414,126.134 -35.703,25.831 -53.805,53.349 -53.805,81.789 0,55.821 70.316,108.161 197.995,147.375 C -349.008,-18.968 -179.883,2.551 0,2.551 c 179.871,0 348.993,-21.519 476.212,-60.592 127.688,-39.215 198.008,-91.554 198.008,-147.375 0,-28.439 -18.103,-55.958 -53.803,-81.789 C 514.385,-363.829 270.858,-413.339 0,-413.339"
             style="fill:#d8ff7e;fill-opacity:1;fill-rule:nonzero;stroke:none"
             id="path237" />
        </g>
        <g
           id="g239">
          <g
             id="g241" />
          <g
             id="g253">
            <g
               clip-path="url(#clipPath245)"
               opacity="0.300003"
               id="g251">
              <g
                 transform="translate(1422.9482,583.5674)"
                 id="g249">
                <path
                   d="m 0,0 c 0,-28.647 -18.976,-55.928 -53.275,-80.761 -102.41,-73.985 -341.324,-125.894 -619.68,-125.894 -278.397,0 -517.31,51.909 -619.659,125.894 -34.32,24.833 -53.275,52.114 -53.275,80.761 0,3.225 0.244,6.428 0.734,9.61 3.755,-25.137 22.098,-49.072 52.541,-71.109 102.349,-73.985 341.262,-125.895 619.659,-125.895 278.356,0 517.27,51.91 619.68,125.895 30.422,22.037 48.787,45.972 52.542,71.109 C -0.244,6.428 0,3.225 0,0"
                   style="fill:#99ff85;fill-opacity:1;fill-rule:nonzero;stroke:none"
                   id="path247" />
              </g>
            </g>
          </g>
        </g>
        <g
           id="g255"
           transform="translate(749.9961,782.0962)">
          <path
             d="m 0,0 c -178.969,0 -347.11,-21.37 -473.452,-60.174 -121.593,-37.347 -191.33,-87.775 -191.33,-138.355 0,-25.241 16.788,-50.187 49.9,-74.142 104.49,-75.537 345.847,-124.344 614.882,-124.344 269.003,0 510.362,48.808 614.89,124.346 33.104,23.954 49.892,48.899 49.892,74.14 0,50.578 -69.741,101.007 -191.341,138.355 C 347.096,-21.37 178.959,0 0,0 m 0,-413.339 c -272.243,0 -517.354,50.024 -624.449,127.44 -37.595,27.2 -56.657,56.596 -56.657,87.37 0,59.102 72.045,113.779 202.86,153.958 127.853,39.269 297.698,60.895 478.246,60.895 180.538,0 350.378,-21.626 478.234,-60.895 130.825,-40.179 202.872,-94.856 202.872,-153.958 0,-30.773 -19.061,-60.168 -56.652,-87.367 C 517.321,-363.317 272.211,-413.339 0,-413.339"
             style="fill:#000000;fill-opacity:1;fill-rule:nonzero;stroke:none"
             id="path257" />
        </g>
        <g
           id="g259"
           transform="translate(1422.9414,620.5195)">
          <path
             d="m 0,0 c 0,-28.646 -18.971,-55.934 -53.276,-80.755 -102.396,-73.997 -341.308,-125.892 -619.669,-125.892 -278.392,0 -517.304,51.895 -619.668,125.892 -34.306,24.821 -53.276,52.109 -53.276,80.755 0,114.162 301.272,206.691 672.944,206.691 C -301.304,206.691 0,114.162 0,0"
             style="fill:#e7fe9c;fill-opacity:1;fill-rule:nonzero;stroke:none"
             id="path261" />
        </g>
        <g
           id="g263">
          <g
             id="g265" />
          <g
             id="g277">
            <g
               clip-path="url(#clipPath269)"
               opacity="0.600006"
               id="g275">
              <g
                 transform="translate(1422.9482,612.8682)"
                 id="g273">
                <path
                   d="m 0,0 c 0,-28.647 -18.976,-55.929 -53.275,-80.761 -102.41,-73.985 -341.324,-125.894 -619.68,-125.894 -278.397,0 -517.31,51.909 -619.659,125.894 -34.32,24.832 -53.275,52.114 -53.275,80.761 0,5.224 0.632,10.406 1.877,15.527 5.53,-22.995 23.322,-44.95 51.398,-65.253 102.349,-73.986 341.262,-125.894 619.659,-125.894 278.356,0 517.27,51.908 619.68,125.894 28.056,20.303 45.848,42.258 51.398,65.253 C -0.632,10.406 0,5.224 0,0"
                   style="fill:#ffffff;fill-opacity:1;fill-rule:nonzero;stroke:none"
                   id="path271" />
              </g>
            </g>
          </g>
        </g>
        <g
           id="g279">
          <g
             id="g281" />
          <g
             id="g293">
            <g
               clip-path="url(#clipPath285)"
               opacity="0.600006"
               id="g291">
              <g
                 transform="translate(1422.9482,623.0703)"
                 id="g289">
                <path
                   d="m 0,0 c 0,-4.754 -0.53,-9.468 -1.551,-14.141 -23.627,107.573 -315.206,192.577 -671.404,192.577 -356.218,0 -647.776,-85.004 -671.383,-192.577 -1.021,4.673 -1.551,9.387 -1.551,14.141 0,114.162 301.269,206.696 672.934,206.696 C -301.311,206.696 0,114.162 0,0"
                   style="fill:#ffffff;fill-opacity:1;fill-rule:nonzero;stroke:none"
                   id="path287" />
              </g>
            </g>
          </g>
        </g>
        <g
           id="g295"
           transform="translate(1089.9746,635.459)">
          <path
             d="m 0,0 c -56.179,-29.415 -187.257,-50.045 -339.978,-50.045 -152.738,0 -283.816,20.63 -339.978,50.045 56.162,29.433 187.24,50.063 339.978,50.063 C -187.257,50.063 -56.179,29.433 0,0"
             style="fill:#99ff85;fill-opacity:1;fill-rule:nonzero;stroke:none"
             id="path297" />
        </g>
        <g
           id="g299"
           transform="translate(429.5596,635.46)">
          <path
             d="M 0,0 C 63.323,-25.688 185.467,-41.894 320.434,-41.894 455.398,-41.894 577.543,-25.688 640.866,0 577.586,25.698 455.448,41.905 320.434,41.905 185.417,41.905 63.28,25.698 0,0 m 320.434,-58.218 c -149.662,0 -284.597,20.012 -343.763,50.984 l -13.803,7.225 13.801,7.235 C 35.78,38.209 170.717,58.23 320.434,58.23 470.149,58.23 605.086,38.209 664.199,7.226 l 13.802,-7.235 -13.804,-7.225 C 605.026,-38.206 470.094,-58.218 320.434,-58.218"
             style="fill:#390075;fill-opacity:1;fill-rule:nonzero;stroke:none"
             id="path301" />
        </g>
        <g
           id="g303"
           transform="translate(749.9961,741.5635)">
          <path
             d="m 0,0 c -98.046,0 -190.132,-8.476 -259.301,-23.869 -75.016,-16.694 -101.745,-36.843 -101.745,-50.134 0,-7.637 8.827,-16.47 24.858,-24.871 56.961,-29.835 188.924,-49.113 336.188,-49.113 147.249,0 279.212,19.278 336.193,49.114 16.026,8.401 24.853,17.233 24.853,24.87 0,13.29 -26.731,33.44 -101.752,50.134 C 190.125,-8.476 98.039,0 0,0 m 0,-164.312 c -149.705,0 -284.639,20.011 -343.762,50.979 -22.303,11.687 -33.608,24.92 -33.608,39.33 0,26.928 38.532,49.156 114.525,66.067 C -192.551,7.709 -99.202,16.325 0,16.325 c 99.197,0 192.541,-8.616 262.841,-24.261 75.995,-16.911 114.53,-39.139 114.53,-66.067 0,-14.409 -11.306,-27.641 -33.603,-39.329 -59.146,-30.97 -194.081,-50.98 -343.768,-50.98"
             style="fill:#390075;fill-opacity:1;fill-rule:nonzero;stroke:none"
             id="path305" />
        </g>
        <g
           id="g307"
           transform="translate(749.9937,693.6904)">
          <path
             d="m 0,0 c 146.49,0 278.826,-19.165 339.834,-49.016 13.722,7.801 21.219,15.85 21.219,22.877 0,13.295 -26.73,33.45 -101.755,50.142 C 190.135,39.393 98.049,47.867 0,47.867 c -98.054,0 -190.14,-8.474 -259.296,-23.864 -75.012,-16.691 -101.737,-36.846 -101.737,-50.142 0,-7.023 7.492,-15.074 21.201,-22.876 C -278.821,-19.168 -146.484,0 0,0 m -339.979,-67.451 -3.791,1.99 c -22.287,11.7 -33.588,24.93 -33.588,39.322 0,26.936 38.53,49.167 114.518,66.076 70.284,15.64 163.628,24.254 262.84,24.254 99.205,0 192.551,-8.614 262.843,-24.254 76,-16.911 114.535,-39.141 114.535,-66.076 0,-14.397 -11.308,-27.629 -33.61,-39.324 l -3.791,-1.987 -3.789,1.986 C 279.237,-35.612 147.274,-16.325 0,-16.325 c -147.276,0 -279.239,-19.287 -336.188,-49.139 z"
             style="fill:#000000;fill-opacity:1;fill-rule:nonzero;stroke:none"
             id="path309" />
        </g>
        <g
           id="g311"
           transform="translate(429.5596,635.46)">
          <path
             d="M 0,0 C 63.323,-25.688 185.467,-41.894 320.434,-41.894 455.398,-41.894 577.543,-25.688 640.866,0 577.586,25.698 455.448,41.905 320.434,41.905 185.417,41.905 63.28,25.698 0,0 m 320.434,-58.218 c -149.662,0 -284.597,20.012 -343.763,50.984 l -13.803,7.225 13.801,7.235 C 35.78,38.209 170.717,58.23 320.434,58.23 470.149,58.23 605.086,38.209 664.199,7.226 l 13.802,-7.235 -13.804,-7.225 C 605.026,-38.206 470.094,-58.218 320.434,-58.218"
             style="fill:#000000;fill-opacity:1;fill-rule:nonzero;stroke:none"
             id="path313" />
        </g>
        <g
           id="g315"
           transform="translate(749.9937,819.0537)">
          <path
             d="m 0,0 c -151.65,0 -294.669,-15.168 -413.599,-43.866 -157.276,-37.978 -251.173,-95.798 -251.173,-154.667 0,-25.245 16.788,-50.194 49.897,-74.148 104.491,-75.536 345.845,-124.345 614.875,-124.345 268.98,0 510.342,48.809 614.9,124.347 33.104,23.966 49.892,48.914 49.892,74.146 0,58.866 -93.904,116.685 -251.193,154.668 C 294.65,-15.168 151.627,0 0,0 m 0,-413.351 c -272.24,0 -517.346,50.025 -624.441,127.443 -37.594,27.2 -56.655,56.597 -56.655,87.375 0,67.914 96.103,130.072 263.667,170.534 C -297.262,0.998 -152.918,16.325 0,16.325 c 152.898,0 297.243,-15.327 417.429,-44.322 167.576,-40.466 263.688,-102.625 263.688,-170.536 0,-30.763 -19.06,-60.158 -56.651,-87.372 C 517.301,-363.327 272.186,-413.351 0,-413.351"
             style="fill:#000000;fill-opacity:1;fill-rule:nonzero;stroke:none"
             id="path317" />
        </g>
        <g
           id="g319"
           transform="translate(372.5063,698.0996)">
          <path
             d="M 0,0 C 0.032,-0.068 0.064,-0.137 0.1,-0.205 0.067,-0.132 0.035,-0.065 0,0 m 377.487,-120.857 c -19.637,0 -39.284,0.344 -58.403,1.024 -7.168,0.268 -14.24,0.555 -21.253,0.903 -13.513,0.647 -27.08,1.49 -40.313,2.504 -1.68,0.114 -3.411,0.252 -5.139,0.391 -97.937,7.806 -177.549,24.626 -218.657,46.162 -8.862,4.665 -16.03,9.573 -21.318,14.594 -6.175,5.842 -10.058,12.077 -11.557,18.549 -0.932,1.616 -1.841,3.235 -2.75,4.869 -1.126,1.987 -2.244,4.053 -3.34,6.117 -0.954,1.769 -1.913,3.583 -2.872,5.417 -0.227,0.409 -0.433,0.818 -0.64,1.25 -0.912,1.767 -1.808,3.538 -2.7,5.326 l -0.306,0.61 c -0.982,2.002 -1.931,3.943 -2.857,5.884 -0.025,0.039 -0.1,0.196 -0.195,0.41 -0.896,1.878 -1.778,3.759 -2.637,5.656 -0.249,0.507 -0.481,1.017 -0.705,1.55 -1.517,3.308 -3.141,7.037 -5.017,11.53 -0.513,1.188 -1.043,2.462 -1.546,3.759 -0.568,1.365 -1.119,2.692 -1.627,4.017 -0.311,0.761 -0.675,1.684 -1.024,2.635 -0.61,1.531 -1.2,3.061 -1.753,4.592 -0.254,0.632 -0.493,1.28 -0.73,1.929 -0.695,1.866 -1.32,3.615 -1.945,5.363 -0.327,0.914 -0.655,1.853 -0.956,2.768 -0.554,1.532 -1.146,3.289 -1.719,5.027 -2.03,6.056 -3.945,12.259 -5.676,18.405 -0.569,1.948 -1.114,3.962 -1.66,5.999 -0.147,0.477 -0.343,1.221 -0.532,1.965 -0.541,2.055 -1.092,4.17 -1.599,6.287 -0.125,0.44 -0.23,0.862 -0.317,1.282 -0.511,2.029 -0.984,4.059 -1.44,6.09 -0.079,0.293 -0.149,0.59 -0.214,0.886 -1.101,4.371 1.535,8.875 5.906,9.977 4.363,1.098 8.79,-1.484 9.893,-5.853 l 0.294,-1.211 c 0.453,-2.031 0.924,-4.061 1.437,-6.091 l 0.272,-1.097 c 0.493,-2.067 1.033,-4.131 1.569,-6.179 0.144,-0.564 0.276,-1.085 0.428,-1.589 0.586,-2.165 1.101,-4.067 1.654,-5.97 1.682,-5.961 3.515,-11.907 5.472,-17.745 0.543,-1.644 1.091,-3.271 1.662,-4.862 0.328,-0.983 0.613,-1.797 0.896,-2.596 0.603,-1.683 1.203,-3.363 1.821,-5.024 0.272,-0.737 0.459,-1.256 0.665,-1.758 l 0.122,-0.324 c 0.518,-1.441 1.076,-2.881 1.652,-4.32 l 0.094,-0.247 c 0.289,-0.8 0.598,-1.579 0.909,-2.343 0.516,-1.342 1.012,-2.529 1.502,-3.716 l 0.157,-0.381 c 0.434,-1.111 0.884,-2.203 1.358,-3.293 1.843,-4.411 3.395,-7.983 4.926,-11.329 0.204,-0.475 0.319,-0.732 0.449,-0.989 l 0.134,-0.286 c 0.854,-1.886 1.729,-3.752 2.623,-5.619 l 0.13,-0.285 c 0.968,-2.018 1.863,-3.841 2.754,-5.664 l 0.277,-0.552 c 0.881,-1.764 1.763,-3.508 2.663,-5.251 l 0.127,-0.254 c 0.077,-0.165 0.151,-0.321 0.238,-0.477 l 0.13,-0.236 c 0.942,-1.805 1.883,-3.59 2.844,-5.373 1.052,-1.98 2.1,-3.914 3.184,-5.828 1.106,-1.988 2.182,-3.896 3.295,-5.807 l 0.745,-1.276 0.251,-1.458 c 0.596,-3.473 2.954,-7.18 7.009,-11.02 4.212,-3.997 10.158,-8.028 17.68,-11.989 39.214,-20.545 116.54,-36.703 212.133,-44.323 1.9,-0.151 3.567,-0.286 5.25,-0.401 13.149,-1.007 26.559,-1.84 39.93,-2.479 6.961,-0.347 13.968,-0.631 21.054,-0.895 18.91,-0.672 38.365,-1.013 57.808,-1.013 39.198,0 77.71,1.365 114.466,4.058 20.78,1.523 40.841,3.446 59.622,5.717 72.735,8.7 130.299,22.672 162.1,39.343 7.491,3.934 13.433,7.963 17.653,11.973 4.07,3.849 6.438,7.567 7.048,11.059 l 0.252,1.427 0.725,1.255 c 2.897,5.001 5.677,10.045 8.257,14.99 0.837,1.57 1.619,3.081 2.386,4.611 0.348,0.662 0.59,1.119 0.809,1.593 l 0.165,0.333 c 0.777,1.496 1.514,2.993 2.237,4.49 l 0.308,0.636 c 0.242,0.496 0.484,0.988 0.715,1.49 0.76,1.564 1.45,2.996 2.08,4.43 l 0.114,0.249 c 1.41,2.94 2.738,5.918 4.05,8.898 1.026,2.347 2.04,4.711 3.015,7.098 0.931,2.195 1.775,4.3 2.602,6.425 0.352,0.87 0.665,1.656 0.956,2.462 l 0.095,0.247 c 0.575,1.439 1.134,2.879 1.651,4.32 l 0.123,0.324 c 0.224,0.543 0.425,1.107 0.627,1.668 0.658,1.757 1.258,3.435 1.856,5.113 0.286,0.8 0.57,1.614 0.837,2.412 0.633,1.772 1.179,3.396 1.706,5.002 1.971,5.869 3.806,11.816 5.47,17.723 0.573,1.97 1.088,3.872 1.604,5.794 0.209,0.705 0.328,1.182 0.453,1.659 0.583,2.223 1.118,4.292 1.616,6.36 l 0.267,1.08 c 0.516,2.057 0.996,4.113 1.478,6.172 l 0.069,0.314 c 0.059,0.278 0.119,0.556 0.186,0.825 1.104,4.369 5.547,7.013 9.909,5.92 4.372,-1.101 7.021,-5.533 5.923,-9.902 l -0.211,-0.949 c -0.466,-2.004 -0.953,-4.083 -1.475,-6.165 -0.087,-0.422 -0.191,-0.848 -0.316,-1.291 -0.513,-2.116 -1.062,-4.23 -1.61,-6.325 -0.214,-0.823 -0.393,-1.505 -0.593,-2.165 -0.475,-1.794 -1.02,-3.808 -1.608,-5.823 -1.717,-6.095 -3.632,-12.301 -5.672,-18.375 -0.556,-1.693 -1.15,-3.455 -1.765,-5.175 -0.24,-0.73 -0.569,-1.669 -0.895,-2.586 -0.628,-1.749 -1.253,-3.499 -1.897,-5.229 -0.245,-0.669 -0.501,-1.373 -0.778,-2.06 -0.553,-1.531 -1.143,-3.061 -1.754,-4.592 -0.345,-0.946 -0.712,-1.869 -1.078,-2.772 -0.847,-2.183 -1.756,-4.444 -2.708,-6.685 -0.978,-2.402 -2.047,-4.891 -3.133,-7.38 -1.375,-3.122 -2.759,-6.224 -4.226,-9.284 -0.698,-1.585 -1.457,-3.17 -2.22,-4.732 -0.209,-0.461 -0.501,-1.058 -0.797,-1.661 l -0.279,-0.574 c -0.757,-1.574 -1.544,-3.166 -2.368,-4.76 -0.325,-0.689 -0.67,-1.359 -1.039,-2.049 -0.73,-1.465 -1.577,-3.098 -2.447,-4.73 -2.465,-4.721 -5.131,-9.578 -7.905,-14.406 -1.517,-6.478 -5.407,-12.712 -11.585,-18.556 -5.3,-5.034 -12.471,-9.943 -21.298,-14.58 -33.523,-17.573 -93.09,-32.167 -167.735,-41.095 -19.025,-2.302 -39.345,-4.251 -60.382,-5.79 -37.149,-2.723 -76.062,-4.103 -115.656,-4.103"
             style="fill:#000000;fill-opacity:1;fill-rule:nonzero;stroke:none"
             id="path321" />
        </g>
        <g
           id="g323"
           transform="translate(798.4697,505.7646)">
          <path
             d="m 0,0 c 0,-26.184 -21.702,-47.41 -48.473,-47.41 -26.771,0 -48.473,21.226 -48.473,47.41 0,26.185 21.702,47.411 48.473,47.411 C -21.702,47.411 0,26.185 0,0"
             style="fill:#fecd01;fill-opacity:1;fill-rule:nonzero;stroke:none"
             id="path325" />
        </g>
        <g
           id="g327">
          <g
             id="g329" />
          <g
             id="g341">
            <g
               clip-path="url(#clipPath333)"
               opacity="0.600006"
               id="g339">
              <g
                 transform="translate(798.4746,505.7656)"
                 id="g337">
                <path
                   d="m 0,0 c 0,-3.55 -0.388,-6.999 -1.163,-10.304 -4.795,21.241 -24.159,37.136 -47.318,37.136 -23.159,0 -42.522,-15.895 -47.297,-37.136 -0.775,3.305 -1.163,6.754 -1.163,10.304 0,26.179 21.69,47.42 48.46,47.42 C -21.711,47.42 0,26.179 0,0"
                   style="fill:#ffffff;fill-opacity:1;fill-rule:nonzero;stroke:none"
                   id="path335" />
              </g>
            </g>
          </g>
        </g>
        <g
           id="g343">
          <g
             id="g345" />
          <g
             id="g357">
            <g
               clip-path="url(#clipPath349)"
               opacity="0.350006"
               id="g355">
              <g
                 transform="translate(798.4746,505.7656)"
                 id="g353">
                <path
                   d="m 0,0 c 0,-26.179 -21.711,-47.42 -48.481,-47.42 -26.77,0 -48.46,21.241 -48.46,47.42 0,3.959 0.489,7.795 1.428,11.468 5.244,-20.65 24.302,-35.953 47.032,-35.953 22.73,0 41.808,15.303 47.052,35.953 C -0.49,7.795 0,3.959 0,0"
                   style="fill:#390075;fill-opacity:1;fill-rule:nonzero;stroke:none"
                   id="path351" />
              </g>
            </g>
          </g>
        </g>
        <g
           id="g359"
           transform="translate(749.9961,545.0137)">
          <path
             d="m 0,0 c -22.228,0 -40.311,-17.606 -40.311,-39.249 0,-21.643 18.083,-39.248 40.311,-39.248 22.228,0 40.311,17.605 40.311,39.248 C 40.311,-17.606 22.228,0 0,0 m 0,-94.821 c -31.229,0 -56.635,24.929 -56.635,55.572 0,30.644 25.406,55.574 56.635,55.574 31.229,0 56.635,-24.93 56.635,-55.574 0,-30.643 -25.406,-55.572 -56.635,-55.572"
             style="fill:#000000;fill-opacity:1;fill-rule:nonzero;stroke:none"
             id="path361" />
        </g>
        <g
           id="g363"
           transform="translate(1270.8096,667.5859)">
          <path
             d="m 0,0 c 25.726,-4.878 43.854,-23.213 40.489,-40.951 -3.363,-17.739 -26.945,-28.164 -52.671,-23.285 -25.725,4.878 -43.853,23.213 -40.49,40.951 C -49.308,-5.547 -25.727,4.879 0,0"
             style="fill:#fecd01;fill-opacity:1;fill-rule:nonzero;stroke:none"
             id="path365" />
        </g>
        <g
           id="g367">
          <g
             id="g369" />
          <g
             id="g381">
            <g
               clip-path="url(#clipPath373)"
               opacity="0.600006"
               id="g379">
              <g
                 transform="translate(1311.46,634.2109)"
                 id="g377">
                <path
                   d="m 0,0 c -7.244,8.447 -19.059,15.181 -33.157,17.854 -25.731,4.876 -49.318,-5.55 -52.685,-23.282 -0.489,-2.53 -0.53,-5.06 -0.163,-7.569 -5.978,6.937 -8.835,15.078 -7.325,23.077 3.367,17.751 26.954,28.179 52.684,23.302 C -18.568,29.199 -2.103,15.1 0,0"
                   style="fill:#ffffff;fill-opacity:1;fill-rule:nonzero;stroke:none"
                   id="path375" />
              </g>
            </g>
          </g>
        </g>
        <g
           id="g383">
          <g
             id="g385" />
          <g
             id="g397">
            <g
               clip-path="url(#clipPath389)"
               opacity="0.350006"
               id="g395">
              <g
                 transform="translate(1311.2959,626.6406)"
                 id="g393">
                <path
                   d="m 0,0 c -3.366,-17.751 -26.934,-28.178 -52.663,-23.302 -20.629,3.939 -36.381,16.488 -40.074,30.444 7.284,-6.774 17.69,-12.038 29.77,-14.324 25.73,-4.877 49.317,5.55 52.684,23.282 0.673,3.509 0.489,7.059 -0.429,10.528 C -2.469,18.977 1.796,9.407 0,0"
                   style="fill:#390075;fill-opacity:1;fill-rule:nonzero;stroke:none"
                   id="path391" />
              </g>
            </g>
          </g>
        </g>
        <g
           id="g399"
           transform="translate(1258.2842,660.6113)">
          <path
             d="m 0,0 c -16.404,0 -30.092,-7.103 -32.129,-17.831 -2.475,-13.063 13.092,-27.448 33.994,-31.412 20.895,-3.964 40.652,3.725 43.133,16.787 C 47.474,-19.393 31.906,-5.008 11.004,-1.045 7.271,-0.336 3.571,0 0,0 m 13.193,-66.656 c -4.653,0 -9.469,0.445 -14.369,1.375 -30.617,5.806 -51.255,27.984 -46.988,50.491 4.268,22.505 31.588,35.589 62.212,29.783 C 44.661,9.188 65.3,-12.99 61.033,-35.497 57.449,-54.4 37.598,-66.656 13.193,-66.656"
             style="fill:#000000;fill-opacity:1;fill-rule:nonzero;stroke:none"
             id="path401" />
        </g>
        <g
           id="g403"
           transform="translate(236.4634,667.5859)">
          <path
             d="m 0,0 c -25.726,-4.878 -43.854,-23.213 -40.49,-40.951 3.364,-17.739 26.946,-28.164 52.672,-23.285 25.725,4.878 43.853,23.213 40.489,40.951 C 49.308,-5.547 25.726,4.879 0,0"
             style="fill:#fecd01;fill-opacity:1;fill-rule:nonzero;stroke:none"
             id="path405" />
        </g>
        <g
           id="g407">
          <g
             id="g409" />
          <g
             id="g421">
            <g
               clip-path="url(#clipPath413)"
               opacity="0.600006"
               id="g419">
              <g
                 transform="translate(195.813,634.2109)"
                 id="g417">
                <path
                   d="m 0,0 c 7.244,8.447 19.058,15.181 33.157,17.854 25.73,4.876 49.318,-5.55 52.684,-23.282 0.49,-2.53 0.531,-5.06 0.163,-7.569 C 91.983,-6.06 94.839,2.081 93.33,10.08 89.963,27.831 66.375,38.259 40.646,33.382 18.568,29.199 2.102,15.1 0,0"
                   style="fill:#ffffff;fill-opacity:1;fill-rule:nonzero;stroke:none"
                   id="path415" />
              </g>
            </g>
          </g>
        </g>
        <g
           id="g423">
          <g
             id="g425" />
          <g
             id="g437">
            <g
               clip-path="url(#clipPath429)"
               opacity="0.350006"
               id="g435">
              <g
                 transform="translate(195.9766,626.6406)"
                 id="g433">
                <path
                   d="M 0,0 C 3.366,-17.751 26.934,-28.178 52.663,-23.302 73.292,-19.363 89.044,-6.814 92.737,7.142 85.453,0.368 75.047,-4.896 62.967,-7.182 37.238,-12.059 13.65,-1.632 10.284,16.1 9.61,19.609 9.794,23.159 10.712,26.628 2.469,18.977 -1.796,9.407 0,0"
                   style="fill:#390075;fill-opacity:1;fill-rule:nonzero;stroke:none"
                   id="path431" />
              </g>
            </g>
          </g>
        </g>
        <g
           id="g439"
           transform="translate(236.4634,667.5859)">
          <path
             d="m 0,0 h 0.025 z m 12.526,-6.975 c -3.572,0 -7.268,-0.336 -11.004,-1.045 -10.833,-2.053 -20.377,-6.803 -26.873,-13.373 -3.303,-3.34 -8.621,-10.127 -7.121,-18.038 1.502,-7.911 8.934,-12.28 13.231,-14.179 8.451,-3.738 19.064,-4.662 29.904,-2.608 20.9,3.964 36.467,18.35 33.991,31.412 C 42.619,-14.078 28.93,-6.975 12.526,-6.975 M -0.438,-73.601 c -9.106,-0.002 -17.822,1.709 -25.404,5.061 -12.476,5.516 -20.526,14.774 -22.666,26.068 -2.144,11.295 1.958,22.857 11.55,32.557 8.8,8.899 21.386,15.269 35.436,17.934 30.617,5.794 57.945,-7.276 62.212,-29.784 4.267,-22.506 -16.372,-44.684 -46.986,-50.491 -4.747,-0.9 -9.497,-1.345 -14.142,-1.345"
             style="fill:#000000;fill-opacity:1;fill-rule:nonzero;stroke:none"
             id="path441" />
        </g>
        <g
           id="g443"
           transform="translate(561.4482,243.3896)">
          <path
             d="m 0,0 c -3.507,0 -6.748,2.278 -7.811,5.809 -1.303,4.316 1.143,8.87 5.459,10.17 61.49,18.527 76.577,76.867 77.187,79.341 1.081,4.372 5.499,7.057 9.868,5.976 4.372,-1.071 7.054,-5.471 5.99,-9.845 C 90.003,88.61 72.981,21.63 2.356,0.35 1.571,0.112 0.779,0 0,0"
             style="fill:#000000;fill-opacity:1;fill-rule:nonzero;stroke:none"
             id="path445" />
        </g>
        <g
           id="g447"
           transform="translate(939.4736,243.6699)">
          <path
             d="m 0,0 c -0.779,0 -1.571,0.112 -2.356,0.349 -70.598,21.272 -87.934,87.994 -88.636,90.823 -1.089,4.375 1.576,8.803 5.952,9.89 4.347,1.087 8.788,-1.568 9.884,-5.936 C -74.531,92.66 -59.163,34.515 2.352,15.979 6.668,14.679 9.113,10.125 7.811,5.809 6.747,2.278 3.507,0 0,0"
             style="fill:#000000;fill-opacity:1;fill-rule:nonzero;stroke:none"
             id="path449" />
        </g>
        <g
           id="g451"
           transform="translate(750.0039,577.2422)">
          <path
             d="m 0,0 c -4.508,0 -8.163,3.655 -8.163,8.162 v 82.282 c 0,4.507 3.655,8.162 8.163,8.162 4.508,0 8.162,-3.655 8.162,-8.162 V 8.162 C 8.162,3.655 4.508,0 0,0"
             style="fill:#390075;fill-opacity:1;fill-rule:nonzero;stroke:none"
             id="path453" />
        </g>
        <g
           id="g455"
           transform="translate(1231.4434,468.4766)">
          <path
             d="m 0,0 c -1.894,0 -3.786,0.696 -5.266,2.101 -95.886,90.977 -212.709,132.101 -213.877,132.506 -3.992,1.383 -6.109,5.742 -4.727,9.735 1.38,3.992 5.734,6.109 9.734,4.726 1.2,-0.416 121.143,-42.637 219.402,-135.866 C 8.331,10.294 8.459,5.451 5.552,2.385 4.048,0.8 2.025,0 0,0"
             style="fill:#000000;fill-opacity:1;fill-rule:nonzero;stroke:none"
             id="path457" />
        </g>
        <g
           id="g459"
           transform="translate(264.5044,468.4766)">
          <path
             d="m 0,0 c -2.027,0 -4.05,0.8 -5.555,2.385 -2.906,3.066 -2.779,7.909 0.287,10.817 98.261,93.229 218.203,135.45 219.404,135.866 3.992,1.381 8.349,-0.733 9.731,-4.724 1.385,-3.993 -0.73,-8.351 -4.722,-9.736 C 217.974,134.202 101.042,92.976 5.263,2.101 3.783,0.696 1.891,0 0,0"
             style="fill:#000000;fill-opacity:1;fill-rule:nonzero;stroke:none"
             id="path461" />
        </g>
        <g
           id="g463"
           transform="translate(990.8691,716.4502)">
          <path
             d="m 0,0 c -22.603,31.48 -55.145,36.282 -84.246,14.188 -17.081,-12.969 -25.353,-28.322 -28.046,-34.913 -9.641,-23.592 -4.78,-44.648 -2.888,-51.497 6.714,-41.631 -3.062,-55.008 -18.315,-63.208 l 0.402,0.036 c 0.028,0.007 0.053,0.019 0.081,0.025 0.397,0.085 0.807,0.126 1.208,0.175 0.349,0.146 0.339,0.087 0.197,0.039 0.045,0.006 0.093,0.01 0.133,0.018 0.416,0.084 0.819,0.075 1.195,-0.004 l 33.002,4.303 c 6.283,16.623 11.161,33.032 7.319,43.448 -9.514,25.791 -7.587,50.605 6.555,73.522 6.5,10.534 16.766,19.345 30.211,21.231 18.766,2.635 32.14,-5.164 40.998,-21.97 6.84,-12.979 0.972,-25.706 -13.289,-27.131 -4.391,-0.44 -8.826,-0.658 -13.154,-1.45 -6.56,-1.204 -6.671,-5.282 -3.034,-9.497 5.568,-6.453 19.74,-8.141 27.334,-3.765 C 4.673,-45.493 12.601,-17.548 0,0"
             style="fill:#752993;fill-opacity:1;fill-rule:nonzero;stroke:none"
             id="path465" />
        </g>
        <g
           id="g467"
           transform="translate(990.8691,716.4502)">
          <path
             d="m 0,0 c -22.603,31.48 -55.145,36.282 -84.246,14.188 -17.081,-12.969 -25.353,-28.322 -28.046,-34.913 -9.641,-23.592 -4.78,-44.648 -2.888,-51.497 6.714,-41.631 -3.062,-55.008 -18.315,-63.208 l 0.402,0.036 c 0.028,0.007 0.053,0.019 0.081,0.025 0.397,0.085 0.807,0.126 1.208,0.175 0.349,0.146 0.339,0.087 0.197,0.039 0.045,0.006 0.093,0.01 0.133,0.018 0.416,0.084 0.819,0.075 1.195,-0.004 l 33.002,4.303 c 6.283,16.623 11.161,33.032 7.319,43.448 -9.514,25.791 -7.587,50.605 6.555,73.522 6.5,10.534 16.766,19.345 30.211,21.231 18.766,2.635 32.14,-5.164 40.998,-21.97 6.84,-12.979 0.972,-25.706 -13.289,-27.131 -4.391,-0.44 -8.826,-0.658 -13.154,-1.45 -6.56,-1.204 -6.671,-5.282 -3.034,-9.497 5.568,-6.453 19.74,-8.141 27.334,-3.765 C 4.673,-45.493 12.601,-17.548 0,0 Z"
             style="fill:none;stroke:#000000;stroke-width:9.182;stroke-linecap:butt;stroke-linejoin:miter;stroke-miterlimit:10;stroke-dasharray:none;stroke-opacity:1"
             id="path469" />
        </g>
        <g
           id="g471">
          <g
             id="g473" />
          <g
             id="g485">
            <g
               clip-path="url(#clipPath477)"
               opacity="0.289993"
               id="g483">
              <g
                 transform="translate(880.5166,584.1689)"
                 id="g481">
                <path
                   d="m 0,0 c 3.436,1.041 6.956,-0.026 10.511,-0.382 0.199,-0.019 0.383,-0.06 0.559,-0.109 4.249,10.997 7.939,22.562 8.815,31.312 C 19.885,30.821 12.857,13.495 0,0"
                   style="fill:#000000;fill-opacity:1;fill-rule:nonzero;stroke:none"
                   id="path479" />
              </g>
            </g>
          </g>
        </g>
        <g
           id="g487"
           transform="translate(744.812,554.6865)">
          <path
             d="m 0,0 h -17.345 c -4.258,0 -9.341,2.07 -11.778,5.562 -10.45,14.976 -33.317,44.277 -33.317,55.722 l 8.094,57.815 c 5.782,11.562 7.69,25.438 20.813,25.438 l 48.565,-3.469 c 13.123,0 20.813,-21.566 20.813,-34.689 l 9.25,-42.782 C 45.095,51.924 15.783,16.719 8.094,3.469 6.7,1.067 2.777,0 0,0"
             style="fill:#fec4fe;fill-opacity:1;fill-rule:nonzero;stroke:none"
             id="path489" />
        </g>
        <g
           id="g491"
           transform="translate(461.6733,1010.3066)">
          <path
             d="m 0,0 c 3.783,7.584 5.157,15.563 10.274,22.549 8.073,11.021 20.251,18.96 24.637,32.909 2.144,6.818 0.157,16.421 -6.86,17.946 -15.718,3.414 -32.428,3 -46.191,-4.633 -17.224,-9.552 -25.048,-28.185 -27.811,-46.588 -2.546,-16.956 -2.016,-34.394 3.41,-51.95 8.872,-28.707 23.514,-52.478 47.951,-69.775 7.216,-5.108 15.436,-10.478 23.83,-11.846 12.173,-1.986 24.95,-0.935 37.411,-0.193 5.939,0.353 12.068,0.846 17.659,4.767 3.91,2.741 5.758,5.109 5.048,9.596 -0.868,5.492 -5.279,4.537 -8.64,4.183 -10.832,-1.142 -20.736,1.79 -30.645,5.628 -18.51,7.169 -27.577,30.322 -15.447,42.49 7.242,7.266 12.813,15.784 19.699,23.268 4.577,4.974 10.111,12.784 8.346,20.445 C 60.175,9.627 39.932,21.398 28.263,15.868 18.49,11.236 9.453,5.724 0,0 m 498.834,-110.029 c 16.945,1.261 32.944,4.196 47.969,14.19 22.135,14.723 37.513,35.088 45.785,58.759 7.617,21.796 12.26,44.546 4.583,69.696 -9.893,32.407 -30.468,44.338 -58.584,46.578 -8.427,0.672 -17.484,-0.733 -20.545,-8.813 -3.097,-8.181 -0.817,-16.981 6.568,-23.877 9.585,-8.951 18.119,-19.013 24.743,-30.389 1.793,-3.079 5.172,-7.9 1.027,-10.975 -3.818,-2.833 -5.172,2.461 -7.306,4.583 -10.155,10.098 -22.624,11.728 -35.587,8.369 -14.874,-3.854 -21.753,-18.585 -13.94,-29.367 7.779,-10.734 16.43,-20.863 25.077,-30.933 6.86,-7.988 7.751,-22.725 0.739,-30.733 -11.939,-13.632 -28.134,-15.325 -44.905,-15.825 -3.223,-0.096 -9.255,4.724 -10.174,-3.426 -0.719,-6.373 0.084,-10.788 7.845,-13.046 8.803,-2.559 17.236,-5.795 26.705,-4.791 M 172.722,-437.478 c -10.06,5.534 -17.081,9.396 -21.239,17.391 -7.418,14.269 -0.994,31.423 6.651,46.865 7.986,16.133 18.333,31.977 33.314,43.399 8.044,6.132 15.979,13.054 26.809,13.28 7.17,0.149 10.232,5.476 10.743,10.231 0.697,6.498 -5.887,6.016 -10.526,6.314 -22.802,1.468 -45.02,6.762 -66.599,13.386 -23.625,7.251 -46.713,17.174 -65.857,33.426 -13.047,11.079 -22.214,25.553 -26.249,42.446 -3.844,16.094 3.227,29.734 11.158,43.101 6.521,10.992 12.298,22.386 11.279,35.834 -0.348,4.594 0.74,7.701 -7.186,5.174 -23.884,-7.611 -47.935,-6.697 -72.015,1.885 -13.84,4.933 -27.441,9.555 -38.884,19.067 -21.18,17.606 -36.051,38.865 -41.715,66.491 -2.429,11.852 -5.2,23.4 -4.386,35.582 1.699,25.405 7.039,49.408 23.537,69.967 8.796,10.961 21.232,16.195 33.099,21.458 18.753,8.316 38.858,13.978 59.663,9.299 27.361,-6.154 50.613,-19.36 67.081,-43.001 7.581,-10.882 12.153,-23.125 16.791,-35.309 2.394,-6.291 4.691,-7.385 9.812,-2.726 13.473,12.257 28.65,22.093 45.494,28.91 6.406,2.592 6.528,6.01 4.464,10.996 -6.12,14.783 -11.991,29.681 -15.185,45.393 -1.858,9.142 -5.634,14.202 -16.007,14.06 -12.774,-0.175 -20.917,6.732 -25.015,20.375 -2.914,9.702 1.411,18.633 7.897,24.874 7.724,7.432 17.942,11.439 29.085,7.175 19.305,-7.389 25.151,-25.396 12.944,-42.153 -5.338,-7.327 -5.681,-12.355 -1.212,-20.474 8.184,-14.865 16.93,-29.399 25.061,-44.274 3.136,-5.737 6.842,-4.783 10.9,-3.029 29.648,12.807 60.976,15.944 92.198,11.287 13.819,-2.062 29.149,-2.659 41.84,-11.084 3.221,-2.138 4.958,0.122 6.568,3.233 5.965,11.535 12.321,22.867 18.511,34.286 2.072,3.821 3.625,7.777 6.532,11.305 4.676,5.676 4.782,11.66 -1.125,17.527 -8.142,8.086 -8.447,26.182 -1.224,34.579 8.794,10.226 28.193,12.904 38.058,5.254 11.313,-8.773 14.705,-19.178 10.73,-32.914 -3.02,-10.437 -11.339,-15.46 -26.903,-16.172 -3.252,-0.149 -6.555,0.514 -8.006,-3.878 -6.132,-18.555 -12.47,-37.042 -18.73,-55.554 -1.368,-4.046 -0.784,-7.339 3.736,-8.835 20.253,-6.702 38.01,-17.384 53.219,-32.448 4.391,-4.349 5.702,0.074 7.537,3.499 5.796,10.817 9.329,22.617 16.377,32.985 13.258,19.505 30.391,33.022 52.534,41.296 16.678,6.232 33.243,7.468 50.609,5.1 32.835,-4.477 67.655,-32.246 75.024,-59.428 5.227,-19.288 8.289,-38.857 5.926,-58.581 -4.852,-40.515 -21.377,-73.745 -59.297,-94.297 -27.02,-14.646 -55.377,-17.097 -84.922,-14.842 -2.897,0.221 -5.713,1.684 -8.599,1.803 -3.831,0.157 -6.341,7.595 -10.201,2.899 -2.99,-3.638 -2.164,-9.538 -0.572,-13.875 5.739,-15.639 11.193,-31.207 20.436,-45.615 6.293,-9.808 4.341,-23.216 -0.196,-34.291 -10.794,-26.352 -31.321,-42.679 -56.741,-54.501 -17.649,-8.207 -35.934,-13.311 -54.527,-18.53 -16.059,-4.509 -32.301,-5.685 -48.481,-8.163 -4.645,-0.71 -10.203,-2.778 -9.131,-6.539 1.038,-3.641 2.849,-9.394 9.853,-10.076 17.368,-1.689 29.335,-12.432 39.469,-25.807 10.94,-14.438 23.587,-27.822 27.08,-46.568 0.27,-1.446 0.657,-2.871 0.924,-4.317 0.167,-0.908 2.833,-17.048 -1.977,-27.785 -1.337,-2.985 -3.758,-6.678 -21.699,-17.134 -26.974,-15.722 -35.183,-15.348 -39.72,-25.037 -4.579,-9.779 -0.501,-13.735 -4.106,-22.824 -6.208,-15.658 -24.89,-20.289 -34.535,-6.474 -1.469,2.104 -3.547,4.254 -4.667,9.461 -5.389,25.056 14.221,50.76 21.07,59.51 10.146,12.961 10.882,9.214 14.669,16.356 9.367,17.665 1.799,37.332 -13.338,76.666 -1.582,4.113 -4.644,11.743 -11.738,14.738 -3.375,1.425 -4.668,0.536 -13.098,0.319 -11.659,-0.299 -30.768,0.849 -36.004,4.461 -0.315,0.217 -1.398,1.008 -2.59,0.766 -2.178,-0.443 -3.14,-4.012 -3.41,-4.943 -2.068,-7.127 -6.878,-8.842 -13.609,-27.442 -7.605,-21.019 -14.812,-40.936 -7.504,-62.214 1.471,-4.284 3.118,-7.247 6.411,-13.175 12.761,-22.963 21.915,-23.988 27.623,-38.95 5.361,-14.053 2.48,-28.163 -1.941,-34.795 -1.562,-2.343 -3.682,-9.029 -15.474,-8.842 -12.364,0.194 -15.253,5.319 -17.684,6.631 -9.24,4.985 2.926,26.745 -6.786,39.837 -7.583,10.221 -18.532,3.753 -42.106,16.719"
             style="fill:#752993;fill-opacity:1;fill-rule:nonzero;stroke:none"
             id="path493" />
        </g>
        <g
           id="g495"
           transform="translate(461.6733,1010.3066)">
          <path
             d="m 0,0 c 3.783,7.584 5.157,15.563 10.274,22.549 8.073,11.021 20.251,18.96 24.637,32.909 2.144,6.818 0.157,16.421 -6.86,17.946 -15.718,3.414 -32.428,3 -46.191,-4.633 -17.224,-9.552 -25.048,-28.185 -27.811,-46.588 -2.546,-16.956 -2.016,-34.394 3.41,-51.95 8.872,-28.707 23.514,-52.478 47.951,-69.775 7.216,-5.108 15.436,-10.478 23.83,-11.846 12.173,-1.986 24.95,-0.935 37.411,-0.193 5.939,0.353 12.068,0.846 17.659,4.767 3.91,2.741 5.758,5.109 5.048,9.596 -0.868,5.492 -5.279,4.537 -8.64,4.183 -10.832,-1.142 -20.736,1.79 -30.645,5.628 -18.51,7.169 -27.577,30.322 -15.447,42.49 7.242,7.266 12.813,15.784 19.699,23.268 4.577,4.974 10.111,12.784 8.346,20.445 C 60.175,9.627 39.932,21.398 28.263,15.868 18.49,11.236 9.453,5.724 0,0 Z m 498.834,-110.029 c 16.945,1.261 32.944,4.196 47.969,14.19 22.135,14.723 37.513,35.088 45.785,58.759 7.617,21.796 12.26,44.546 4.583,69.696 -9.893,32.407 -30.468,44.338 -58.584,46.578 -8.427,0.672 -17.484,-0.733 -20.545,-8.813 -3.097,-8.181 -0.817,-16.981 6.568,-23.877 9.585,-8.951 18.119,-19.013 24.743,-30.389 1.793,-3.079 5.172,-7.9 1.027,-10.975 -3.818,-2.833 -5.172,2.461 -7.306,4.583 -10.155,10.098 -22.624,11.728 -35.587,8.369 -14.874,-3.854 -21.753,-18.585 -13.94,-29.367 7.779,-10.734 16.43,-20.863 25.077,-30.933 6.86,-7.988 7.751,-22.725 0.739,-30.733 -11.939,-13.632 -28.134,-15.325 -44.905,-15.825 -3.223,-0.096 -9.255,4.724 -10.174,-3.426 -0.719,-6.373 0.084,-10.788 7.845,-13.046 8.803,-2.559 17.236,-5.795 26.705,-4.791 z M 172.722,-437.478 c -10.06,5.534 -17.081,9.396 -21.239,17.391 -7.418,14.269 -0.994,31.423 6.651,46.865 7.986,16.133 18.333,31.977 33.314,43.399 8.044,6.132 15.979,13.054 26.809,13.28 7.17,0.149 10.232,5.476 10.743,10.231 0.697,6.498 -5.887,6.016 -10.526,6.314 -22.802,1.468 -45.02,6.762 -66.599,13.386 -23.625,7.251 -46.713,17.174 -65.857,33.426 -13.047,11.079 -22.214,25.553 -26.249,42.446 -3.844,16.094 3.227,29.734 11.158,43.101 6.521,10.992 12.298,22.386 11.279,35.834 -0.348,4.594 0.74,7.701 -7.186,5.174 -23.884,-7.611 -47.935,-6.697 -72.015,1.885 -13.84,4.933 -27.441,9.555 -38.884,19.067 -21.18,17.606 -36.051,38.865 -41.715,66.491 -2.429,11.852 -5.2,23.4 -4.386,35.582 1.699,25.405 7.039,49.408 23.537,69.967 8.796,10.961 21.232,16.195 33.099,21.458 18.753,8.316 38.858,13.978 59.663,9.299 27.361,-6.154 50.613,-19.36 67.081,-43.001 7.581,-10.882 12.153,-23.125 16.791,-35.309 2.394,-6.291 4.691,-7.385 9.812,-2.726 13.473,12.257 28.65,22.093 45.494,28.91 6.406,2.592 6.528,6.01 4.464,10.996 -6.12,14.783 -11.991,29.681 -15.185,45.393 -1.858,9.142 -5.634,14.202 -16.007,14.06 -12.774,-0.175 -20.917,6.732 -25.015,20.375 -2.914,9.702 1.411,18.633 7.897,24.874 7.724,7.432 17.942,11.439 29.085,7.175 19.305,-7.389 25.151,-25.396 12.944,-42.153 -5.338,-7.327 -5.681,-12.355 -1.212,-20.474 8.184,-14.865 16.93,-29.399 25.061,-44.274 3.136,-5.737 6.842,-4.783 10.9,-3.029 29.648,12.807 60.976,15.944 92.198,11.287 13.819,-2.062 29.149,-2.659 41.84,-11.084 3.221,-2.138 4.958,0.122 6.568,3.233 5.965,11.535 12.321,22.867 18.511,34.286 2.072,3.821 3.625,7.777 6.532,11.305 4.676,5.676 4.782,11.66 -1.125,17.527 -8.142,8.086 -8.447,26.182 -1.224,34.579 8.794,10.226 28.193,12.904 38.058,5.254 11.313,-8.773 14.705,-19.178 10.73,-32.914 -3.02,-10.437 -11.339,-15.46 -26.903,-16.172 -3.252,-0.149 -6.555,0.514 -8.006,-3.878 -6.132,-18.555 -12.47,-37.042 -18.73,-55.554 -1.368,-4.046 -0.784,-7.339 3.736,-8.835 20.253,-6.702 38.01,-17.384 53.219,-32.448 4.391,-4.349 5.702,0.074 7.537,3.499 5.796,10.817 9.329,22.617 16.377,32.985 13.258,19.505 30.391,33.022 52.534,41.296 16.678,6.232 33.243,7.468 50.609,5.1 32.835,-4.477 67.655,-32.246 75.024,-59.428 5.227,-19.288 8.289,-38.857 5.926,-58.581 -4.852,-40.515 -21.377,-73.745 -59.297,-94.297 -27.02,-14.646 -55.377,-17.097 -84.922,-14.842 -2.897,0.221 -5.713,1.684 -8.599,1.803 -3.831,0.157 -6.341,7.595 -10.201,2.899 -2.99,-3.638 -2.164,-9.538 -0.572,-13.875 5.739,-15.639 11.193,-31.207 20.436,-45.615 6.293,-9.808 4.341,-23.216 -0.196,-34.291 -10.794,-26.352 -31.321,-42.679 -56.741,-54.501 -17.649,-8.207 -35.934,-13.311 -54.527,-18.53 -16.059,-4.509 -32.301,-5.685 -48.481,-8.163 -4.645,-0.71 -10.203,-2.778 -9.131,-6.539 1.038,-3.641 2.849,-9.394 9.853,-10.076 17.368,-1.689 29.335,-12.432 39.469,-25.807 10.94,-14.438 23.587,-27.822 27.08,-46.568 0.27,-1.446 0.657,-2.871 0.924,-4.317 0.167,-0.908 2.833,-17.048 -1.977,-27.785 -1.337,-2.985 -3.758,-6.678 -21.699,-17.134 -26.974,-15.722 -35.183,-15.348 -39.72,-25.037 -4.579,-9.779 -0.501,-13.735 -4.106,-22.824 -6.208,-15.658 -24.89,-20.289 -34.535,-6.474 -1.469,2.104 -3.547,4.254 -4.667,9.461 -5.389,25.056 14.221,50.76 21.07,59.51 10.146,12.961 10.882,9.214 14.669,16.356 9.367,17.665 1.799,37.332 -13.338,76.666 -1.582,4.113 -4.644,11.743 -11.738,14.738 -3.375,1.425 -4.668,0.536 -13.098,0.319 -11.659,-0.299 -30.768,0.849 -36.004,4.461 -0.315,0.217 -1.398,1.008 -2.59,0.766 -2.178,-0.443 -3.14,-4.012 -3.41,-4.943 -2.068,-7.127 -6.878,-8.842 -13.609,-27.442 -7.605,-21.019 -14.812,-40.936 -7.504,-62.214 1.471,-4.284 3.118,-7.247 6.411,-13.175 12.761,-22.963 21.915,-23.988 27.623,-38.95 5.361,-14.053 2.48,-28.163 -1.941,-34.795 -1.562,-2.343 -3.682,-9.029 -15.474,-8.842 -12.364,0.194 -15.253,5.319 -17.684,6.631 -9.24,4.985 2.926,26.745 -6.786,39.837 -7.583,10.221 -18.532,3.753 -42.106,16.719 z"
             style="fill:none;stroke:#000000;stroke-width:9.182;stroke-linecap:butt;stroke-linejoin:miter;stroke-miterlimit:10;stroke-dasharray:none;stroke-opacity:1"
             id="path497" />
        </g>
        <g
           id="g499"
           transform="translate(960.5078,900.2778)">
          <path
             d="m 0,0 c -9.47,-1.004 -17.902,2.231 -26.705,4.791 -7.762,2.258 -8.565,6.673 -7.846,13.045 0.919,8.151 6.951,3.331 10.175,3.427 16.771,0.5 32.966,2.193 44.904,15.824 7.013,8.009 6.121,22.746 -0.739,30.734 -8.646,10.07 -17.298,20.199 -25.076,30.933 -7.814,10.782 -0.935,25.513 13.939,29.367 12.963,3.358 25.433,1.729 35.587,-8.369 2.134,-2.123 3.489,-7.417 7.307,-4.584 4.144,3.076 0.766,7.896 -1.027,10.976 -6.624,11.376 -15.159,21.438 -24.744,30.389 -7.384,6.896 -9.665,15.696 -6.567,23.877 3.061,8.08 12.117,9.485 20.545,8.813 28.115,-2.24 48.69,-14.171 58.584,-46.578 7.677,-25.15 3.033,-47.9 -4.583,-69.696 C 85.481,49.278 70.104,28.913 47.969,14.19 32.943,4.196 16.944,1.261 0,0"
             style="fill:#fec4fe;fill-opacity:1;fill-rule:nonzero;stroke:none"
             id="path501" />
        </g>
        <g
           id="g503"
           transform="translate(461.6733,1010.3066)">
          <path
             d="m 0,0 c 9.453,5.724 18.49,11.236 28.263,15.868 11.669,5.53 31.912,-6.241 34.408,-17.072 1.765,-7.661 -3.769,-15.471 -8.346,-20.445 -6.886,-7.484 -12.457,-16.002 -19.699,-23.268 -12.13,-12.168 -3.063,-35.321 15.447,-42.49 9.909,-3.838 19.813,-6.77 30.645,-5.628 3.361,0.354 7.772,1.309 8.64,-4.183 0.71,-4.487 -1.138,-6.855 -5.048,-9.596 -5.591,-3.921 -11.72,-4.414 -17.659,-4.767 -12.461,-0.742 -25.238,-1.793 -37.411,0.193 -8.394,1.368 -16.614,6.738 -23.83,11.846 -24.437,17.297 -39.079,41.068 -47.951,69.775 -5.426,17.556 -5.956,34.994 -3.41,51.95 2.763,18.403 10.587,37.036 27.811,46.588 13.763,7.633 30.473,8.047 46.191,4.633 7.017,-1.525 9.004,-11.128 6.86,-17.946 C 30.525,41.509 18.347,33.57 10.274,22.549 5.157,15.563 3.783,7.584 0,0"
             style="fill:#fec4fe;fill-opacity:1;fill-rule:nonzero;stroke:none"
             id="path505" />
        </g>
        <g
           id="g507"
           transform="translate(740.7612,799.2212)">
          <path
             d="m 0,0 c 0,-14.65 -11.876,-33.158 -26.526,-33.158 -14.65,0 -26.527,11.876 -26.527,26.527"
             style="fill:none;stroke:#000000;stroke-width:4.421;stroke-linecap:butt;stroke-linejoin:miter;stroke-miterlimit:10;stroke-dasharray:none;stroke-opacity:1"
             id="path509" />
        </g>
        <g
           id="g511"
           transform="translate(793.8145,792.5898)">
          <path
             d="m 0,0 c 0,-14.65 -11.877,-26.526 -26.526,-26.526 -14.651,0 -26.527,18.507 -26.527,33.157"
             style="fill:none;stroke:#000000;stroke-width:4.421;stroke-linecap:butt;stroke-linejoin:miter;stroke-miterlimit:10;stroke-dasharray:none;stroke-opacity:1"
             id="path513" />
        </g>
        <g
           id="g515"
           transform="translate(758.4453,808.0635)">
          <path
             d="M 0,0 C 1.28,-4.156 -7.108,-13.263 -17.684,-13.263 -28.26,-13.263 -36.648,-4.156 -35.368,0 -33.235,6.927 -2.134,6.927 0,0"
             style="fill:#000000;fill-opacity:1;fill-rule:nonzero;stroke:none"
             id="path517" />
        </g>
        <g
           id="g519"
           transform="translate(758.4453,808.0635)">
          <path
             d="M 0,0 C 1.28,-4.156 -7.108,-13.263 -17.684,-13.263 -28.26,-13.263 -36.648,-4.156 -35.368,0 -33.235,6.927 -2.134,6.927 0,0 Z"
             style="fill:none;stroke:#000000;stroke-width:4.421;stroke-linecap:butt;stroke-linejoin:miter;stroke-miterlimit:10;stroke-dasharray:none;stroke-opacity:1"
             id="path521" />
        </g>
        <g
           id="g523"
           transform="translate(739.6562,787.0635)">
          <path
             d="m 0,0 c 0,6.375 2.21,-19.895 2.21,-37.579 0,-4.253 -5.658,-6.632 -9.911,-6.632 h -8.915 c -1.069,0 -9.911,-2.21 -7.7,22.106 C -17.685,-22.105 0,-8.842 0,0"
             style="fill:#ffffff;fill-opacity:1;fill-rule:nonzero;stroke:none"
             id="path525" />
        </g>
        <g
           id="g527"
           transform="translate(739.6562,787.0635)">
          <path
             d="m 0,0 c 0,6.375 2.21,-19.895 2.21,-37.579 0,-4.253 -5.658,-6.632 -9.911,-6.632 h -8.915 c -1.069,0 -9.911,-2.21 -7.7,22.106 C -17.685,-22.105 0,-8.842 0,0 Z"
             style="fill:none;stroke:#000000;stroke-width:4.421;stroke-linecap:butt;stroke-linejoin:miter;stroke-miterlimit:10;stroke-dasharray:none;stroke-opacity:1"
             id="path529" />
        </g>
        <g
           id="g531"
           transform="translate(743.7178,787.0635)">
          <path
             d="m 0,0 c 0,6.375 -2.21,-19.895 -2.21,-37.579 0,-4.253 5.658,-6.632 9.91,-6.632 h 8.915 c 1.429,0 9.911,-2.21 7.701,22.106 C 17.685,-22.105 0,-8.842 0,0"
             style="fill:#ffffff;fill-opacity:1;fill-rule:nonzero;stroke:none"
             id="path533" />
        </g>
        <g
           id="g535"
           transform="translate(743.7178,787.0635)">
          <path
             d="m 0,0 c 0,6.375 -2.21,-19.895 -2.21,-37.579 0,-4.253 5.658,-6.632 9.91,-6.632 h 8.915 c 1.429,0 9.911,-2.21 7.701,22.106 C 17.685,-22.105 0,-8.842 0,0 Z"
             style="fill:none;stroke:#000000;stroke-width:4.421;stroke-linecap:butt;stroke-linejoin:miter;stroke-miterlimit:10;stroke-dasharray:none;stroke-opacity:1"
             id="path537" />
        </g>
        <g
           id="g539"
           transform="translate(582.708,913.064)">
          <path
             d="m 0,0 c -1.067,3.707 -0.914,7.827 0.143,11.749 1.048,3.946 3.104,7.603 5.627,10.815 5.117,6.437 12.14,11.001 19.631,13.785 7.51,2.766 15.673,3.896 23.685,2.681 1,-0.136 1.992,-0.333 2.978,-0.581 0.985,-0.21 1.965,-0.498 2.927,-0.817 0.963,-0.299 1.912,-0.703 2.845,-1.073 L 59.21,35.89 c 0.457,-0.226 0.917,-0.442 1.292,-0.672 1.584,-0.91 3.177,-1.825 4.749,-2.686 0.39,-0.214 0.789,-0.407 1.143,-0.587 l 0.231,-0.117 c 0.048,-0.021 0.041,-0.031 0.042,-0.049 0,0 0.005,-0.008 -0.001,-0.014 -0.036,-0.006 -0.073,-0.016 -0.108,-0.03 -0.035,-0.013 -0.068,-0.03 -0.099,-0.05 -0.198,-0.064 -0.482,-0.35 -0.532,-0.601 -0.108,-0.231 -0.034,-0.729 0.182,-0.924 0.037,-0.044 0.082,-0.085 0.131,-0.118 0.139,-0.083 0.083,-0.038 0.128,-0.054 0.043,-0.002 0.022,0.023 0.021,0.038 -0.02,0.036 -0.061,0.07 -0.086,0.103 -0.031,0.034 -0.034,0.059 -0.026,0.104 0.023,0.036 0.036,0.129 0.016,0.152 -0.053,0.063 -0.154,-0.107 -0.154,-0.302 -0.024,-0.397 0.077,-0.876 0.177,-1.346 -0.367,0.315 -0.735,0.635 -1.01,1.12 -0.129,0.24 -0.286,0.554 -0.17,1.043 0.052,0.244 0.256,0.493 0.472,0.642 0.215,0.143 0.439,0.219 0.638,0.257 0.204,0.043 0.392,0.047 0.594,0.03 0.109,-0.014 0.2,-0.022 0.346,-0.072 0.094,-0.044 0.096,-0.014 0.276,-0.138 0.072,-0.051 0.139,-0.109 0.199,-0.171 0.222,-0.222 0.314,-0.749 0.203,-1.004 -0.072,-0.27 -0.377,-0.576 -0.597,-0.657 -0.059,-0.026 -0.12,-0.05 -0.183,-0.069 -0.063,-0.02 -0.127,-0.036 -0.192,-0.049 L 66.805,29.653 66.504,29.61 66.053,29.567 c -0.551,-0.042 -1.046,-0.03 -1.545,-0.025 -1.98,0.042 -3.87,0.272 -5.756,0.534 -0.959,0.149 -1.727,0.198 -2.58,0.297 -0.856,0.019 -1.669,0.134 -2.517,0.118 C 51.98,30.523 50.315,30.484 48.651,30.35 42.008,29.876 35.467,28.258 29.244,25.989 23.028,23.684 17.1,20.637 11.988,16.536 6.821,12.458 2.621,7.249 0,0"
             style="fill:#000000;fill-opacity:1;fill-rule:nonzero;stroke:none"
             id="path541" />
        </g>
        <g
           id="g543"
           transform="translate(894.9756,910.8535)">
          <path
             d="m 0,0 c -2.62,7.249 -6.82,12.458 -11.987,16.536 -5.113,4.101 -11.041,7.148 -17.257,9.453 -6.223,2.269 -12.764,3.887 -19.407,4.361 -1.664,0.134 -3.329,0.173 -5.003,0.141 -0.849,0.016 -1.661,-0.099 -2.518,-0.119 -0.852,-0.098 -1.62,-0.147 -2.58,-0.296 -1.886,-0.262 -3.776,-0.492 -5.756,-0.534 -0.499,-0.005 -0.994,-0.017 -1.545,0.025 l -0.451,0.042 -0.301,0.044 -0.087,0.016 c -0.064,0.013 -0.129,0.029 -0.192,0.049 -0.062,0.019 -0.124,0.043 -0.183,0.069 -0.22,0.081 -0.525,0.387 -0.596,0.657 -0.112,0.255 -0.02,0.782 0.202,1.004 0.06,0.062 0.128,0.12 0.199,0.171 0.181,0.124 0.182,0.094 0.276,0.138 0.147,0.05 0.237,0.058 0.346,0.072 0.202,0.017 0.391,0.013 0.595,-0.03 0.198,-0.038 0.422,-0.114 0.637,-0.257 0.216,-0.149 0.42,-0.398 0.473,-0.642 0.115,-0.49 -0.042,-0.803 -0.171,-1.043 -0.274,-0.485 -0.642,-0.805 -1.009,-1.12 0.099,0.47 0.2,0.949 0.177,1.346 -10e-4,0.194 -0.101,0.365 -0.155,0.302 -0.019,-0.023 -0.007,-0.116 0.017,-0.152 0.007,-0.045 0.004,-0.07 -0.027,-0.104 -0.024,-0.033 -0.066,-0.067 -0.086,-0.103 -0.001,-0.015 -0.021,-0.04 0.022,-0.038 0.044,0.016 -0.012,-0.029 0.127,0.054 0.049,0.033 0.094,0.074 0.132,0.118 0.215,0.195 0.289,0.693 0.181,0.924 -0.05,0.251 -0.334,0.537 -0.532,0.601 -0.03,0.02 -0.063,0.037 -0.099,0.05 -0.035,0.014 -0.072,0.024 -0.108,0.03 -0.006,0.006 -0.001,0.014 -0.001,0.014 0.001,0.018 -0.006,0.028 0.042,0.049 l 0.231,0.117 c 0.355,0.18 0.754,0.373 1.143,0.587 1.572,0.861 3.165,1.776 4.749,2.686 0.375,0.229 0.835,0.446 1.292,0.672 l 1.374,0.669 c 0.933,0.37 1.882,0.774 2.846,1.073 0.962,0.319 1.941,0.606 2.927,0.817 0.986,0.248 1.977,0.445 2.977,0.581 8.012,1.215 16.176,0.085 23.685,-2.681 7.491,-2.784 14.514,-7.348 19.631,-13.785 2.524,-3.212 4.58,-6.869 5.627,-10.815 C 0.914,7.827 1.067,3.707 0,0"
             style="fill:#000000;fill-opacity:1;fill-rule:nonzero;stroke:none"
             id="path545" />
        </g>
        <g
           id="g547"
           transform="translate(698.7139,789.2749)">
          <path
             d="m 0,0 c -5.837,0.314 -11.73,0.058 -17.513,-0.935 -5.794,-0.936 -11.467,-2.615 -16.866,-4.947 -5.399,-2.333 -10.509,-5.372 -15.134,-9.046 -4.627,-3.672 -8.774,-7.963 -12.335,-12.705 3.412,4.85 7.437,9.287 11.985,13.132 4.545,3.847 9.619,7.085 15.028,9.626 5.409,2.54 11.139,4.432 17.024,5.571 5.875,1.197 11.898,1.65 17.906,1.512 z"
             style="fill:#000000;fill-opacity:1;fill-rule:nonzero;stroke:none"
             id="path549" />
        </g>
        <g
           id="g551"
           transform="translate(700.9243,780.4326)">
          <path
             d="m 0,0 c -5.837,0.315 -11.73,0.058 -17.513,-0.935 -5.793,-0.936 -11.467,-2.614 -16.866,-4.947 -5.399,-2.333 -10.509,-5.372 -15.134,-9.046 -4.627,-3.672 -8.774,-7.963 -12.335,-12.705 3.412,4.851 7.437,9.287 11.985,13.133 4.545,3.846 9.619,7.084 15.028,9.625 5.41,2.54 11.139,4.432 17.024,5.571 5.875,1.197 11.898,1.65 17.906,1.512 z"
             style="fill:#000000;fill-opacity:1;fill-rule:nonzero;stroke:none"
             id="path553" />
        </g>
        <g
           id="g555"
           transform="translate(780.5039,791.4834)">
          <path
             d="m 0,0 c 6.008,0.138 12.03,-0.315 17.905,-1.513 5.886,-1.139 11.615,-3.031 17.025,-5.57 5.409,-2.541 10.482,-5.78 15.028,-9.626 4.548,-3.845 8.572,-8.282 11.984,-13.132 -3.561,4.742 -7.708,9.032 -12.335,12.704 -4.626,3.674 -9.735,6.713 -15.133,9.047 -5.4,2.332 -11.074,4.011 -16.867,4.946 -5.783,0.994 -11.675,1.25 -17.513,0.936 z"
             style="fill:#000000;fill-opacity:1;fill-rule:nonzero;stroke:none"
             id="path557" />
        </g>
        <g
           id="g559"
           transform="translate(778.293,782.6411)">
          <path
             d="m 0,0 c 6.008,0.138 12.03,-0.315 17.906,-1.513 5.885,-1.139 11.615,-3.031 17.024,-5.57 5.409,-2.541 10.482,-5.78 15.028,-9.626 4.548,-3.845 8.572,-8.282 11.984,-13.132 -3.56,4.742 -7.708,9.033 -12.335,12.704 -4.625,3.674 -9.734,6.713 -15.132,9.047 -5.4,2.332 -11.074,4.011 -16.867,4.946 -5.783,0.994 -11.676,1.25 -17.513,0.936 z"
             style="fill:#000000;fill-opacity:1;fill-rule:nonzero;stroke:none"
             id="path561" />
        </g>
        <g
           id="g563"
           transform="translate(690.4399,867.4624)">
          <path
             d="m 0,0 c 7.763,-26.161 -19.6,-37.888 -39.069,-43.665 -19.469,-5.777 -38.2,1.417 -45.963,27.578 -7.763,26.161 5.345,59.545 25.012,64.605 C -25.28,57.454 -7.763,26.161 0,0"
             style="fill:#000000;fill-opacity:1;fill-rule:nonzero;stroke:none"
             id="path565" />
        </g>
        <g
           id="g567"
           transform="translate(690.4399,867.4624)">
          <path
             d="m 0,0 c 7.763,-26.161 -19.6,-37.888 -39.069,-43.665 -19.469,-5.777 -38.2,1.417 -45.963,27.578 -7.763,26.161 5.345,59.545 25.012,64.605 C -25.28,57.454 -7.763,26.161 0,0 Z"
             style="fill:none;stroke:#000000;stroke-width:0.575;stroke-linecap:butt;stroke-linejoin:miter;stroke-miterlimit:10;stroke-dasharray:none;stroke-opacity:1"
             id="path569" />
        </g>
        <g
           id="g571"
           transform="translate(670.6494,891.0581)">
          <path
             d="m 0,0 c 3.262,-5.65 3.071,-11.868 -0.427,-13.888 -3.497,-2.019 -8.978,0.925 -12.24,6.575 -3.262,5.65 -3.071,11.868 0.427,13.887 C -8.742,8.593 -3.262,5.65 0,0"
             style="fill:#ffffff;fill-opacity:1;fill-rule:nonzero;stroke:none"
             id="path573" />
        </g>
        <g
           id="g575"
           transform="translate(670.6494,891.0581)">
          <path
             d="m 0,0 c 3.262,-5.65 3.071,-11.868 -0.427,-13.888 -3.497,-2.019 -8.978,0.925 -12.24,6.575 -3.262,5.65 -3.071,11.868 0.427,13.887 C -8.742,8.593 -3.262,5.65 0,0 Z"
             style="fill:none;stroke:#000000;stroke-width:0.563;stroke-linecap:butt;stroke-linejoin:miter;stroke-miterlimit:10;stroke-dasharray:none;stroke-opacity:1"
             id="path577" />
        </g>
        <g
           id="g579"
           transform="translate(788.6113,867.4214)">
          <path
             d="m 0,0 c -7.902,-26.63 19.951,-38.567 39.77,-44.448 19.817,-5.881 38.884,1.442 46.787,28.073 7.902,26.63 -5.441,60.613 -25.461,65.763 C 25.732,58.484 7.902,26.63 0,0"
             style="fill:#000000;fill-opacity:1;fill-rule:nonzero;stroke:none"
             id="path581" />
        </g>
        <g
           id="g583"
           transform="translate(788.6113,867.4214)">
          <path
             d="m 0,0 c -7.902,-26.63 19.951,-38.567 39.77,-44.448 19.817,-5.881 38.884,1.442 46.787,28.073 7.902,26.63 -5.441,60.613 -25.461,65.763 C 25.732,58.484 7.902,26.63 0,0 Z"
             style="fill:none;stroke:#000000;stroke-width:0.585;stroke-linecap:butt;stroke-linejoin:miter;stroke-miterlimit:10;stroke-dasharray:none;stroke-opacity:1"
             id="path585" />
        </g>
        <g
           id="g587"
           transform="translate(802.7969,891.0581)">
          <path
             d="m 0,0 c -3.263,-5.65 -3.071,-11.868 0.427,-13.888 3.497,-2.019 8.977,0.925 12.239,6.575 3.263,5.65 3.071,11.868 -0.426,13.887 C 8.742,8.593 3.262,5.65 0,0"
             style="fill:#ffffff;fill-opacity:1;fill-rule:nonzero;stroke:none"
             id="path589" />
        </g>
        <g
           id="g591"
           transform="translate(802.7969,891.0581)">
          <path
             d="m 0,0 c -3.263,-5.65 -3.071,-11.868 0.427,-13.888 3.497,-2.019 8.977,0.925 12.239,6.575 3.263,5.65 3.071,11.868 -0.426,13.887 C 8.742,8.593 3.262,5.65 0,0 Z"
             style="fill:none;stroke:#000000;stroke-width:0.563;stroke-linecap:butt;stroke-linejoin:miter;stroke-miterlimit:10;stroke-dasharray:none;stroke-opacity:1"
             id="path593" />
        </g>
        <g
           id="g595">
          <g
             id="g597" />
          <g
             id="g609">
            <g
               clip-path="url(#clipPath601)"
               opacity="0.289993"
               id="g607">
              <g
                 transform="translate(531.2715,780.0005)"
                 id="g605">
                <path
                   d="m 0,0 c 0,0 183.851,-128.348 409.327,0 0,0 -39.313,-71.69 -204.663,-71.69 C 39.314,-71.69 0,0 0,0"
                   style="fill:#000000;fill-opacity:1;fill-rule:nonzero;stroke:none"
                   id="path603" />
              </g>
            </g>
          </g>
        </g>
        <g
           id="g611">
          <g
             id="g613" />
          <g
             id="g625">
            <g
               clip-path="url(#clipPath617)"
               opacity="0.289993"
               id="g623">
              <g
                 transform="translate(681.5898,550.1592)"
                 id="g621">
                <path
                   d="m 0,0 c 0,0 16.188,-45.881 35.845,-10.195 0,0 -3.527,-31.99 -19.657,-28.038 C -4.625,-33.136 0,0 0,0"
                   style="fill:#000000;fill-opacity:1;fill-rule:nonzero;stroke:none"
                   id="path619" />
              </g>
            </g>
          </g>
        </g>
        <g
           id="g627">
          <g
             id="g629" />
          <g
             id="g641">
            <g
               clip-path="url(#clipPath633)"
               opacity="0.289993"
               id="g639">
              <g
                 transform="translate(788.6846,547.6094)"
                 id="g637">
                <path
                   d="m 0,0 c 0,0 -16.187,-42.847 -35.845,-9.521 0,0 3.527,-29.874 19.658,-26.184 C 4.625,-30.944 0,0 0,0"
                   style="fill:#000000;fill-opacity:1;fill-rule:nonzero;stroke:none"
                   id="path635" />
              </g>
            </g>
          </g>
        </g>
        <g
           id="g643">
          <g
             id="g645" />
          <g
             id="g657">
            <g
               clip-path="url(#clipPath649)"
               opacity="0.289993"
               id="g655">
              <g
                 transform="translate(612.2124,601.9316)"
                 id="g653">
                <path
                   d="M 0,0 C 0,0 8.094,-17.345 64.752,-42.783 70.433,-45.333 -4.625,-27.751 0,0"
                   style="fill:#000000;fill-opacity:1;fill-rule:nonzero;stroke:none"
                   id="path651" />
              </g>
            </g>
          </g>
        </g>
        <g
           id="g659">
          <g
             id="g661" />
          <g
             id="g673">
            <g
               clip-path="url(#clipPath665)"
               opacity="0.289993"
               id="g671">
              <g
                 transform="translate(855.6152,605.8682)"
                 id="g669">
                <path
                   d="M 0,0 C 0,0 -5.83,-18.23 -58.807,-50.646 -64.118,-53.896 8.105,-26.94 0,0"
                   style="fill:#000000;fill-opacity:1;fill-rule:nonzero;stroke:none"
                   id="path667" />
              </g>
            </g>
          </g>
        </g>
        <g
           id="g675">
          <g
             id="g677" />
          <g
             id="g689">
            <g
               clip-path="url(#clipPath681)"
               opacity="0.289993"
               id="g687">
              <g
                 transform="translate(957.9434,668.9961)"
                 id="g685">
                <path
                   d="m 0,0 c 0,0 5.781,-15.031 27.751,-2.313 0,0 -10.406,-17.343 -27.751,-9.25 C -17.345,-3.469 -4.625,0 0,0"
                   style="fill:#000000;fill-opacity:1;fill-rule:nonzero;stroke:none"
                   id="path683" />
              </g>
            </g>
          </g>
        </g>
        <g
           id="g691">
          <g
             id="g693" />
          <g
             id="g705">
            <g
               clip-path="url(#clipPath697)"
               opacity="0.289993"
               id="g703">
              <g
                 transform="translate(590.2427,1132.6694)"
                 id="g701">
                <path
                   d="M 0,0 C 0,0 38.158,3.469 47.408,16.188 47.408,16.188 39.314,-23.125 0,0"
                   style="fill:#000000;fill-opacity:1;fill-rule:nonzero;stroke:none"
                   id="path699" />
              </g>
            </g>
          </g>
        </g>
        <g
           id="g707">
          <g
             id="g709" />
          <g
             id="g721">
            <g
               clip-path="url(#clipPath713)"
               opacity="0.289993"
               id="g719">
              <g
                 transform="translate(875.8467,1132.6694)"
                 id="g717">
                <path
                   d="m 0,0 c 0,0 -38.157,3.469 -47.408,16.188 0,0 8.095,-39.313 47.408,-16.188"
                   style="fill:#000000;fill-opacity:1;fill-rule:nonzero;stroke:none"
                   id="path715" />
              </g>
            </g>
          </g>
        </g>
        <g
           id="g723">
          <g
             id="g725" />
          <g
             id="g737">
            <g
               clip-path="url(#clipPath729)"
               opacity="0.270004"
               id="g735">
              <g
                 transform="translate(599.4932,1030.4058)"
                 id="g733">
                <path
                   d="M 0,0 C 0,0 126.036,106.379 269.416,3.469 269.416,3.469 139.911,76.315 0,0"
                   style="fill:#ffffff;fill-opacity:1;fill-rule:nonzero;stroke:none"
                   id="path731" />
              </g>
            </g>
          </g>
        </g>
        <g
           id="g739">
          <g
             id="g741" />
          <g
             id="g753">
            <g
               clip-path="url(#clipPath745)"
               opacity="0.270004"
               id="g751">
              <g
                 transform="translate(880.4717,1156.9517)"
                 id="g749">
                <path
                   d="M 0,0 C 0,0 -24.015,25.806 -52.033,3.441 -52.033,3.441 -28.018,44.73 0,0"
                   style="fill:#ffffff;fill-opacity:1;fill-rule:nonzero;stroke:none"
                   id="path747" />
              </g>
            </g>
          </g>
        </g>
        <g
           id="g755">
          <g
             id="g757" />
          <g
             id="g769">
            <g
               clip-path="url(#clipPath761)"
               opacity="0.270004"
               id="g767">
              <g
                 transform="translate(584.4609,1156.9517)"
                 id="g765">
                <path
                   d="M 0,0 C 0,0 24.016,25.806 52.033,3.441 52.033,3.441 28.018,44.73 0,0"
                   style="fill:#ffffff;fill-opacity:1;fill-rule:nonzero;stroke:none"
                   id="path763" />
              </g>
            </g>
          </g>
        </g>
        <g
           id="g771">
          <g
             id="g773" />
          <g
             id="g785">
            <g
               clip-path="url(#clipPath777)"
               opacity="0.270004"
               id="g783">
              <g
                 transform="translate(921.3506,734.9053)"
                 id="g781">
                <path
                   d="M 0,0 C 0,0 37.001,9.25 70.533,-32.376 70.533,-32.376 49.721,17.344 0,0"
                   style="fill:#ffffff;fill-opacity:1;fill-rule:nonzero;stroke:none"
                   id="path779" />
              </g>
            </g>
          </g>
        </g>
      </g>
    </g>
  </g>
</svg>
